<?xml version="1.0" encoding="utf-8"?>
<!-- Generator: Adobe Illustrator 25.4.1, SVG Export Plug-In . SVG Version: 6.00 Build 0)  -->
<svg version="1.1" id="Layer_1" xmlns="http://www.w3.org/2000/svg" xmlns:xlink="http://www.w3.org/1999/xlink" x="0px" y="0px"
	 viewBox="0 0 282.55 57.42" style="enable-background:new 0 0 282.55 57.42;" xml:space="preserve">
<style type="text/css">
	.st0{fill:#263938;}
</style>
<g>
	<path class="st0" d="M20.42,25.63H8.01l-2.8,8.01H0L11.61,0.47h5.21l11.61,33.16h-5.21L20.42,25.63z M18.81,20.94l-4.6-13.17
		l-4.6,13.17H18.81z"/>
	<path class="st0" d="M40.36,0.47h5.07v28.14h14.5v5.02H40.36V0.47z"/>
	<path class="st0" d="M94.09,10.61h-5.07c-0.52-3.88-3.74-5.59-6.78-5.59c-3.32,0-6.82,2.04-6.82,6.68v10.71
		c0,4.64,3.51,6.68,6.82,6.68c3.32,0,6.82-2.04,6.82-6.68v-2.13h-6.82V15.4h11.89v7.01c0,7.15-4.79,11.7-11.89,11.7
		c-7.11,0-11.89-4.55-11.89-11.7V11.7C70.35,4.55,75.14,0,82.24,0C88.97,0,93.62,4.07,94.09,10.61z"/>
	<path class="st0" d="M116.26,33.93c-5.91-0.35-10.27-4.45-9.94-10.17c0.15-2.46,0.84-4.55,3.18-12.91
		c2.17-7.75,6.78-11.09,13.92-10.67c5.91,0.35,10.27,4.45,9.94,10.17c-0.15,2.46-0.84,4.55-3.18,12.91
		C128.01,31.02,123.4,34.35,116.26,33.93z M111.28,23.29c-0.22,3.74,2.42,5.6,5.88,5.8c3.26,0.19,6.64-1.46,7.95-6.13
		c2.65-9.53,3.21-11.06,3.28-12.15c0.22-3.74-2.42-5.6-5.88-5.8c-3.26-0.19-6.64,1.46-7.95,6.13
		C111.91,20.67,111.35,22.2,111.28,23.29z"/>
	<path class="st0" d="M149.94,19.38v14.26h-5.07V0.47h13.03c6.59,0,10.19,3.74,10.19,9.48c0,4.88-2.61,8.29-7.44,9.19l8.53,14.5
		h-5.69l-8.39-14.26H149.94z M157.9,5.5h-7.96v9h7.96c3.08,0,5.02-1.61,5.02-4.5C162.93,7.11,160.98,5.5,157.9,5.5z"/>
	<path class="st0" d="M186.9,33.64h-5.07V0.47h5.07V33.64z"/>
	<path class="st0" d="M224.7,10.61h-5.07c-0.52-3.88-3.74-5.59-6.78-5.59c-3.32,0-6.82,2.04-6.82,6.68v10.71
		c0,4.64,3.51,6.68,6.82,6.68c3.32,0,6.82-2.04,6.82-6.68v-2.13h-6.82V15.4h11.89v7.01c0,7.15-4.79,11.7-11.89,11.7
		s-11.89-4.55-11.89-11.7V11.7c0-7.15,4.79-11.7,11.89-11.7C219.59,0,224.23,4.07,224.7,10.61z"/>
	<path class="st0" d="M243.7,33.64h-5.07V0.47h5.07V33.64z"/>
	<path class="st0" d="M282.55,33.64h-5.07L263.83,9.86v23.78h-5.07V0.47h5.07l13.65,23.78V0.47h5.07V33.64z"/>
</g>
<g>
	<path class="st0" d="M38.97,54.4h1.1c0.17,1.25,1.02,1.96,2.06,1.96c1.1,0,1.87-0.52,1.87-1.55c0-0.88-0.47-1.41-1.57-1.71
		l-1.24-0.35c-1.45-0.4-2.05-1.59-2.05-2.77c0-1.67,1.32-2.59,2.88-2.59c1.68,0,2.73,0.95,2.94,2.6h-1.1
		c-0.21-0.93-0.79-1.55-1.84-1.55c-1.17,0-1.8,0.68-1.8,1.53c0,0.89,0.45,1.45,1.45,1.73l1.14,0.32c1.38,0.39,2.27,1.24,2.27,2.79
		c0,1.56-1,2.6-2.95,2.6C40.37,57.42,39.11,56.26,38.97,54.4z"/>
	<path class="st0" d="M52.12,50.61l-1.85,6.67h-1.03l-1.8-9.75h1.06l1.38,7.61l1.73-6.21h1.03l1.73,6.21l1.38-7.61h1.06l-1.8,9.75
		h-1.03L52.12,50.61z"/>
	<path class="st0" d="M59.69,47.53h1.07v9.75h-1.07V47.53z"/>
	<path class="st0" d="M63.77,54.4h1.1c0.17,1.25,1.02,1.96,2.06,1.96c1.1,0,1.87-0.52,1.87-1.55c0-0.88-0.47-1.41-1.57-1.71
		l-1.24-0.35c-1.45-0.4-2.05-1.59-2.05-2.77c0-1.67,1.32-2.59,2.88-2.59c1.68,0,2.73,0.95,2.94,2.6h-1.1
		c-0.21-0.93-0.79-1.55-1.84-1.55c-1.17,0-1.8,0.68-1.8,1.53c0,0.89,0.45,1.45,1.45,1.73l1.14,0.32c1.38,0.39,2.27,1.24,2.27,2.79
		c0,1.56-1,2.6-2.95,2.6C65.16,57.42,63.91,56.26,63.77,54.4z"/>
	<path class="st0" d="M72.36,54.4h1.1c0.17,1.25,1.02,1.96,2.06,1.96c1.1,0,1.87-0.52,1.87-1.55c0-0.88-0.47-1.41-1.57-1.71
		l-1.24-0.35c-1.45-0.4-2.05-1.59-2.05-2.77c0-1.67,1.32-2.59,2.88-2.59c1.69,0,2.73,0.95,2.94,2.6h-1.1
		c-0.21-0.93-0.79-1.55-1.84-1.55c-1.17,0-1.8,0.68-1.8,1.53c0,0.89,0.45,1.45,1.45,1.73l1.14,0.32c1.38,0.39,2.27,1.24,2.27,2.79
		c0,1.56-1,2.6-2.95,2.6C73.75,57.42,72.5,56.26,72.36,54.4z"/>
	<path class="st0" d="M85.48,54.4h1.1c0.17,1.25,1.02,1.96,2.06,1.96c1.1,0,1.87-0.52,1.87-1.55c0-0.88-0.47-1.41-1.57-1.71
		l-1.24-0.35c-1.45-0.4-2.05-1.59-2.05-2.77c0-1.67,1.32-2.59,2.88-2.59c1.69,0,2.73,0.95,2.94,2.6h-1.1
		c-0.21-0.93-0.79-1.55-1.84-1.55c-1.17,0-1.8,0.68-1.8,1.53c0,0.89,0.45,1.45,1.45,1.73l1.14,0.32c1.38,0.39,2.27,1.24,2.27,2.79
		c0,1.56-1,2.6-2.95,2.6C86.87,57.42,85.62,56.26,85.48,54.4z"/>
	<path class="st0" d="M97.84,53.49h-2.07v3.79h-1.07v-9.75h3.15c2.26,0,3.15,1.25,3.15,2.98C100.99,52.24,100.09,53.49,97.84,53.49z
		 M97.84,48.59h-2.07v3.84h2.07c1.5,0,2.05-0.86,2.05-1.92C99.89,49.45,99.34,48.59,97.84,48.59z"/>
	<path class="st0" d="M104.97,56.22h4.47v1.06h-5.54v-9.75h5.54v1.06h-4.47v3.23h4.47v1.06h-4.47V56.22z"/>
	<path class="st0" d="M118.83,50.41h-1.07c-0.11-1.29-0.98-1.96-2.06-1.96c-1.16,0-2.08,0.76-2.08,2.24v3.43
		c0,1.48,0.92,2.24,2.08,2.24c1.09,0,1.95-0.67,2.06-1.96h1.07c-0.11,1.88-1.35,3.02-3.13,3.02c-1.87,0-3.15-1.25-3.15-3.3v-3.43
		c0-2.05,1.28-3.3,3.15-3.3C117.48,47.39,118.72,48.53,118.83,50.41z"/>
	<path class="st0" d="M122.02,47.53h1.07v9.75h-1.07V47.53z"/>
	<path class="st0" d="M131.31,54.53h-3.54l-0.89,2.74h-1.09l3.13-9.75h1.23l3.13,9.75h-1.08L131.31,54.53z M129.54,49.02l-1.45,4.53
		h2.9L129.54,49.02z"/>
	<path class="st0" d="M135.99,47.53h1.07v8.69h4.47v1.06h-5.54V47.53z"/>
	<path class="st0" d="M144.25,47.53h1.07v9.75h-1.07V47.53z"/>
	<path class="st0" d="M148.33,54.4h1.1c0.17,1.25,1.02,1.96,2.06,1.96c1.1,0,1.87-0.52,1.87-1.55c0-0.88-0.47-1.41-1.57-1.71
		l-1.24-0.35c-1.45-0.4-2.05-1.59-2.05-2.77c0-1.67,1.32-2.59,2.88-2.59c1.68,0,2.73,0.95,2.94,2.6h-1.1
		c-0.21-0.93-0.79-1.55-1.84-1.55c-1.17,0-1.8,0.68-1.8,1.53c0,0.89,0.45,1.45,1.45,1.73l1.14,0.32c1.38,0.39,2.27,1.24,2.27,2.79
		c0,1.56-1,2.6-2.95,2.6C149.72,57.42,148.47,56.26,148.33,54.4z"/>
	<path class="st0" d="M156.62,48.59v-1.06h6.28v1.06h-2.6v8.69h-1.07v-8.69H156.62z"/>
	<path class="st0" d="M171.2,57.28h-1.07v-9.75h5.54v1.06h-4.47v3.23h4.47v1.06h-4.47V57.28z"/>
	<path class="st0" d="M184.94,54.12c0,2.05-1.28,3.3-3.15,3.3c-1.87,0-3.15-1.25-3.15-3.3v-3.43c0-2.05,1.28-3.3,3.15-3.3
		c1.87,0,3.15,1.25,3.15,3.3V54.12z M183.86,50.69c0-1.48-0.92-2.24-2.08-2.24c-1.16,0-2.07,0.76-2.07,2.24v3.43
		c0,1.48,0.92,2.24,2.07,2.24c1.16,0,2.08-0.77,2.08-2.24V50.69z"/>
	<path class="st0" d="M189.34,52.86v4.41h-1.07v-9.75h3.32c2.07,0,2.81,1.38,2.81,2.68c0,1.18-0.61,2.41-2.29,2.63l2.61,4.44h-1.24
		l-2.59-4.41H189.34z M191.58,48.59h-2.24v3.25h2.24c1.1,0,1.73-0.7,1.73-1.63C193.31,49.27,192.68,48.59,191.58,48.59z"/>
	<path class="st0" d="M206.75,54.53h-3.54l-0.89,2.74h-1.09l3.13-9.75h1.23l3.13,9.75h-1.09L206.75,54.53z M204.98,49.02l-1.45,4.53
		h2.9L204.98,49.02z"/>
	<path class="st0" d="M211.43,47.53h1.07v8.69h4.47v1.06h-5.54V47.53z"/>
	<path class="st0" d="M225.5,50.41h-1.07c-0.11-1.29-0.97-1.96-2.06-1.96c-1.16,0-2.08,0.76-2.08,2.24v3.43
		c0,1.48,0.92,2.24,2.08,2.24c1.16,0,2.08-0.77,2.08-2.24v-0.96h-2.08V52.1h3.15v2.02c0,2.05-1.28,3.3-3.15,3.3s-3.15-1.25-3.15-3.3
		v-3.43c0-2.05,1.28-3.3,3.15-3.3C224.15,47.39,225.39,48.53,225.5,50.41z"/>
	<path class="st0" d="M233.2,54.53h-3.54l-0.89,2.74h-1.09l3.13-9.75h1.23l3.13,9.75h-1.09L233.2,54.53z M231.43,49.02l-1.45,4.53
		h2.9L231.43,49.02z"/>
	<path class="st0" d="M238.95,56.22h4.47v1.06h-5.54v-9.75h5.54v1.06h-4.47v3.23h4.47v1.06h-4.47V56.22z"/>
</g>
</svg>
