<svg xmlns="http://www.w3.org/2000/svg" xmlns:xlink="http://www.w3.org/1999/xlink"><symbol viewBox="-267 268 23.3 25" id="icon-account" xmlns="http://www.w3.org/2000/svg"><path d="M-255.4 281.3c-3.5 0-6.3-2.8-6.3-6.3s2.8-6.3 6.3-6.3 6.3 2.8 6.3 6.3-2.8 6.3-6.3 6.3zm0-11.2c-2.7 0-4.9 2.2-4.9 4.9s2.2 4.9 4.9 4.9 4.9-2.2 4.9-4.9-2.3-4.9-4.9-4.9zM-244.4 292.3h-22v-.8c0-4.9 4.1-9 9-9h4.1c4.9 0 9 4.1 9 9v.8zm-20.5-1.4h19.1c-.4-3.9-3.6-6.9-7.5-6.9h-4.1c-3.9 0-7.1 3-7.5 6.9z"/></symbol><symbol viewBox="-267 268 23.3 25" id="icon-account-thick" xmlns="http://www.w3.org/2000/svg"><path d="M-255.4 281.4c3.5 0 6.4-2.9 6.4-6.4 0-3.5-2.9-6.4-6.4-6.4-3.5 0-6.4 2.9-6.4 6.4 0 3.5 2.9 6.4 6.4 6.4zm-4.8-6.4c0-2.6 2.1-4.8 4.8-4.8 2.6 0 4.8 2.2 4.8 4.8 0 2.6-2.1 4.8-4.8 4.8-2.6 0-4.8-2.2-4.8-4.8zM-253.3 282.4h-4.1c-4.9 0-9.1 4.2-9.1 9.1v.9h22.4v-.9c-.1-4.9-4.3-9.1-9.2-9.1zm-11.5 8.4c.5-3.8 3.6-6.7 7.4-6.7h4.1c3.8 0 6.9 2.8 7.4 6.7h-18.9z"/></symbol><symbol viewBox="-271.4 275.3 23.2 11.6" id="icon-arrow-left" xmlns="http://www.w3.org/2000/svg"><path d="M-268.5 280.4h19.6c.4 0 .8.4.8.8s-.3.8-.8.8h-19.6l3.6 3.6c.3.3.3.9 0 1.2-.3.3-.9.3-1.2 0l-5-5c-.3-.3-.3-.9 0-1.2l5-5c.3-.3.9-.3 1.2 0 .3.3.3.9 0 1.2l-3.6 3.6z"/></symbol><symbol viewBox="-271.4 275.3 23.2 11.6" id="icon-arrow-right" xmlns="http://www.w3.org/2000/svg"><path d="M-254.6 276.8c-.3-.3-.3-.9 0-1.2.3-.3.9-.3 1.2 0l5 5c.3.3.3.9 0 1.2l-5 5c-.3.3-.9.3-1.2 0-.3-.3-.3-.9 0-1.2l3.6-3.6h-19.6c-.5 0-.8-.4-.8-.8s.4-.8.8-.8h19.6l-3.6-3.6z"/></symbol><symbol viewBox="-237.8 255.5 45.7 51" id="icon-atom" xmlns="http://www.w3.org/2000/svg"><path d="M-192.9 268.3c-.9-1.5-2.9-3.3-7.7-3.3-1.6 0-3.5.2-5.4.6-2-6.2-5.2-10-9-10s-7 3.9-9 10c-1.9-.4-3.8-.6-5.4-.6-4.8 0-6.8 1.8-7.7 3.3-1.9 3.2-.1 7.9 4.2 12.8-4.3 4.8-6.1 9.5-4.2 12.7.9 1.5 2.9 3.3 7.7 3.3 1.6 0 3.5-.2 5.4-.6 2 6.2 5.2 10 9 10s7-3.9 9-10c1.9.4 3.8.6 5.4.6 4.8 0 6.8-1.8 7.7-3.3 1.9-3.2.1-7.9-4.2-12.7 4.3-4.9 6.1-9.6 4.2-12.8zm-7.7-.4c2.6 0 4.4.7 5.1 1.8 1.1 1.9-.3 5.3-3.7 9.1-1.5-1.4-3.1-2.7-5-4.1-.2-2.3-.6-4.4-1-6.3 1.6-.3 3.2-.5 4.6-.5zM-211 288c-1.3.8-2.7 1.5-4.1 2.1-1.3-.6-2.7-1.3-4-2.1-1.4-.8-2.7-1.6-3.9-2.4-.1-1.5-.2-3-.2-4.6s.1-3.1.2-4.6c1.2-.8 2.5-1.6 3.9-2.4 1.3-.8 2.7-1.5 4-2.1 1.3.6 2.7 1.3 4.1 2.1 1.4.8 2.7 1.6 3.9 2.4.1 1.5.2 3 .2 4.6s-.1 3.1-.2 4.6c-1.2.8-2.5 1.6-3.9 2.4zm3.5 1.5c-.2 1.2-.4 2.3-.6 3.3-1.1-.3-2.1-.7-3.2-1.1.7-.3 1.3-.7 2-1.1.5-.4 1.1-.8 1.8-1.1zm-11.1 2.2c-1.1.4-2.2.8-3.2 1.1-.2-1.1-.5-2.2-.6-3.3.6.4 1.3.8 1.9 1.2.6.3 1.3.6 1.9 1zm-7.5-8.5c-.9-.7-1.8-1.5-2.6-2.2.8-.7 1.7-1.5 2.6-2.2v4.4zm3.6-10.7c.2-1.2.4-2.3.6-3.3 1.1.3 2.1.7 3.2 1.1-.7.3-1.3.7-2 1.1-.5.4-1.1.8-1.8 1.1zm11.1-2.2c1.1-.4 2.2-.8 3.2-1.1.2 1.1.5 2.2.6 3.3-.6-.4-1.3-.8-1.9-1.2-.6-.3-1.3-.6-1.9-1zm7.5 8.5c.9.7 1.8 1.5 2.6 2.2-.8.7-1.7 1.5-2.6 2.2V281v-2.2zm-11.1-20.3c2.1 0 4.4 2.9 6 7.8-2 .6-4 1.3-6 2.3-2-.9-4.1-1.7-6-2.3 1.6-4.9 3.9-7.8 6-7.8zm-19.5 11.3c.7-1.2 2.5-1.8 5.1-1.8 1.4 0 3 .2 4.6.5-.5 1.9-.8 4.1-1 6.3-1.8 1.3-3.5 2.7-5 4.1-3.4-3.9-4.8-7.3-3.7-9.1zm5.1 24.3c-2.6 0-4.4-.7-5.1-1.8-1.1-1.9.3-5.3 3.7-9.1 1.5 1.4 3.1 2.7 5 4.1.2 2.3.6 4.4 1 6.3-1.6.3-3.2.5-4.6.5zm14.4 9.4c-2.1 0-4.4-2.9-6-7.8 2-.6 4-1.3 6-2.3 2 .9 4.1 1.7 6 2.3-1.6 4.9-3.9 7.8-6 7.8zm19.5-11.2c-.7 1.2-2.5 1.8-5.1 1.8-1.4 0-3-.2-4.6-.5.5-1.9.8-4.1 1-6.3 1.8-1.3 3.5-2.7 5-4.1 3.4 3.8 4.8 7.2 3.7 9.1z"/><circle cx="-215" cy="281" r="3"/></symbol><symbol viewBox="0 0 50 50" id="icon-caron-down" xmlns="http://www.w3.org/2000/svg"><path fill="none" d="M0 0h50v50H0z"/><path d="M47.25 15l-2.086-2.086L25 33.078 4.836 12.914 2.75 15 25 37.25z"/></symbol><symbol viewBox="-254 256 50 50" id="icon-caron-left" xmlns="http://www.w3.org/2000/svg"><path d="M-220 303.3l2.1-2.1-20.2-20.2 20.2-20.2-2.1-2-22.3 22.2z"/></symbol><symbol id="icon-cart" viewBox="-264.4 268 19.8 25" xml:space="preserve" xmlns="http://www.w3.org/2000/svg"><style>.ahst0{fill:#010101}</style><path class="ahst0" d="M-244.6 290.5l-1.3-16.4c0-.4-.4-.8-.9-.8h-2.6v-.2c0-2.8-2.3-5.1-5.1-5.1s-5.1 2.3-5.1 5.1v.2h-2.6c-.4 0-.8.4-.9.8l-1.3 16.4c-.1.6.2 1.3.6 1.8.4.5 1.1.8 1.7.8h15.1c.6 0 1.3-.3 1.7-.8.5-.5.7-1.2.7-1.8zm-13.2-17.4c0-1.8 1.5-3.3 3.3-3.3 1.8 0 3.3 1.5 3.3 3.3v.2h-6.7v-.2zm11.3 18c-.1.1-.2.2-.4.2H-262c-.2 0-.4-.1-.4-.2-.1-.1-.2-.2-.1-.4l1.3-15.6h1.8v4.3c0 .5.4.9.9.9s.9-.4.9-.9V275h6.7v4.3c0 .5.4.9.9.9s.9-.4.9-.9V275h1.8l1.3 15.6c-.4.2-.5.4-.5.5z"/></symbol><symbol viewBox="-23 56 512 450" id="icon-chat" xmlns="http://www.w3.org/2000/svg"><path d="M457.1 394.7c49.5-69.4 41.9-164.5-25.7-226.5-30.9-28.3-70.2-45.9-112.8-50.8-.3-.3-.5-.6-.8-1C280.8 78 227.7 56 172 56 66 56-23 134.9-23 236c0 35.4 11 69.4 31.9 98.7l-29.2 91.7c-1.8 5.8 0 12.1 4.6 16 4.6 3.9 11.1 4.7 16.5 1.9l88.8-45.2c18.2 7.9 37.6 13 57.6 15.4C185.9 455.2 239.3 476 294 476c28.4 0 56.7-5.8 82.4-16.8l88.8 45.2c2.2 1.1 4.5 1.6 6.8 1.6 10.1 0 17.4-9.9 14.3-19.6l-29.2-91.7zM95.7 369c-4.2-2-9.1-1.9-13.2.2l-63.3 32.2 20.7-64.9c1.5-4.7.6-9.9-2.5-13.8C17.5 297.3 7 267.3 7 236 7 153.3 81 86 172 86c36.6 0 71.9 11.1 100.5 31.1C176.2 126.8 99 202 99 296c0 29.2 7.5 57.4 21.6 82.6-8.5-2.6-16.9-5.8-24.9-9.6zm287.8 60.2c-4.1-2.1-9-2.2-13.2-.2-23.4 11.1-49.8 17-76.3 17-91 0-165-67.3-165-150s74-150 165-150 165 67.3 165 150c0 31.3-10.5 61.3-30.4 86.7-3.1 3.9-4 9.1-2.5 13.8l20.7 64.9-63.3-32.2z"/><circle cx="233" cy="296" r="15"/><circle cx="293" cy="296" r="15"/><circle cx="353" cy="296" r="15"/></symbol><symbol viewBox="-462.6 275.4 11.1 11.1" id="icon-close" xmlns="http://www.w3.org/2000/svg"><path d="M-451.6 285.4l-4.5-4.4 4.5-4.5c.1-.1.2-.3.2-.4 0-.2-.1-.3-.2-.4-.2-.2-.6-.2-.8 0l-4.5 4.5-4.5-4.6c-.2-.2-.6-.2-.8 0-.1.1-.2.3-.2.4 0 .2.1.3.2.4l4.5 4.5-4.5 4.5c-.2.2-.2.6 0 .8.2.2.6.2.8 0l4.5-4.5 4.5 4.5c.1.1.3.2.4.2.2 0 .3-.1.4-.2.2-.2.2-.5 0-.8z"/></symbol><symbol viewBox="-23 174.3 512 298.7" id="icon-delivery" xmlns="http://www.w3.org/2000/svg"><path d="M115.7 430.3H73c-5.9 0-10.7-4.8-10.7-10.7S67.1 409 73 409h42.7c5.9 0 10.7 4.8 10.7 10.7s-4.8 10.6-10.7 10.6zM462.3 430.3h-26.7c-5.9 0-10.7-4.8-10.7-10.7s4.8-10.7 10.7-10.7h17.8l14.4-76.6c-.2-39.2-33.7-72.7-74.9-72.7h-70L289 409h61.3c5.9 0 10.7 4.8 10.7 10.7s-4.8 10.7-10.7 10.7h-74.7c-3.2 0-6.3-1.5-8.3-4-2-2.5-2.8-5.8-2.1-9L304 246.7c1.1-4.9 5.4-8.3 10.4-8.3H393c52.9 0 96 43.1 96 96l-16.2 87.3c-.9 5-5.3 8.6-10.5 8.6z"/><path d="M393 473c-29.4 0-53.3-23.9-53.3-53.3s23.9-53.3 53.3-53.3 53.3 23.9 53.3 53.3S422.4 473 393 473zm0-85.3c-17.6 0-32 14.4-32 32s14.4 32 32 32 32-14.4 32-32-14.4-32-32-32zM158.3 473c-29.4 0-53.3-23.9-53.3-53.3s23.9-53.3 53.3-53.3 53.3 23.9 53.3 53.3-23.9 53.3-53.3 53.3zm0-85.3c-17.6 0-32 14.4-32 32s14.4 32 32 32 32-14.4 32-32-14.3-32-32-32zM115.7 238.3H30.3c-5.9 0-10.7-4.8-10.7-10.7S24.4 217 30.3 217h85.3c5.9 0 10.7 4.8 10.7 10.7s-4.7 10.6-10.6 10.6zM115.7 302.3H9c-5.9 0-10.7-4.8-10.7-10.7S3.1 281 9 281h106.7c5.9 0 10.7 4.8 10.7 10.7s-4.8 10.6-10.7 10.6zM115.7 366.3h-128c-5.9 0-10.7-4.8-10.7-10.7s4.8-10.7 10.7-10.7h128c5.9 0 10.7 4.8 10.7 10.7s-4.8 10.7-10.7 10.7z"/><path d="M275.7 430.3H201c-5.9 0-10.7-4.8-10.7-10.7S195.1 409 201 409h66.2l48.5-213.3H73c-5.9 0-10.7-4.8-10.7-10.7s4.8-10.7 10.7-10.7h256c3.2 0 6.3 1.5 8.3 4 2 2.5 2.8 5.8 2.1 9L286.1 422c-1.1 4.9-5.5 8.3-10.4 8.3z"/></symbol><symbol viewBox="-197 224.8 163.3 113" id="icon-dosage" xmlns="http://www.w3.org/2000/svg"><path d="M-41.5 293.4c-4.9-4.8-11.3-7.4-18.2-7.4-3.1 0-6 .6-8.8 1.6v-24.4c0-11-8.9-19.9-19.9-19.9-3.1 0-6.1.8-8.7 2.1-10.8-13.1-26.5-20.6-43.5-20.6-31.1 0-56.5 25.3-56.5 56.5 0 31.1 25.3 56.5 56.5 56.5 12.6 0 24.8-4.3 34.7-12 3.4 6.3 9.9 10.6 17.5 10.6 4.6 0 8.9-1.6 12.4-4.5 4.6 3.7 10.2 5.9 16.2 5.9 7 0 13.6-2.7 18.5-7.7 4.8-4.9 7.5-11.5 7.4-18.4.1-6.9-2.6-13.4-7.6-18.3zm-6.6 2.4l-27.4 27.9c-5.7-7.7-5.2-18.7 1.7-25.7 3.8-3.8 8.8-5.9 14.2-5.9 4.2 0 8.2 1.3 11.5 3.7zm-26.4-32.6V286h-27.7v-22.7c0-7.6 6.2-13.9 13.9-13.9 7.6 0 13.8 6.2 13.8 13.8zm-63 68.4v-9.2c0-1.7-1.4-3-3-3-1.7 0-3 1.4-3 3v9.2c-25.5-1.5-45.9-22-47.3-47.5h8.9c1.7 0 3-1.4 3-3s-1.4-3-3-3h-8.9c1.6-25.3 21.9-45.5 47.2-47v8.7c0 1.7 1.4 3 3 3 1.7 0 3-1.4 3-3V231c13.9.8 26.5 7.2 35.5 17.8-3.8 3.6-6.2 8.7-6.2 14.4v53.3c0 1.1.1 2.2.3 3.2-8.2 7.1-18.6 11.3-29.5 11.9zm35.3-15.1V292H-76c-.7.6-1.4 1.1-2.1 1.7-9.2 9.3-9.7 23.8-2 33.9-2.4 1.8-5.2 2.8-8.2 2.8-7.6 0-13.9-6.2-13.9-13.9zm56.7 9.3c-6.7 6.8-18 7.5-25.7 2.1l27.4-27.9c2.5 3.4 3.9 7.4 4 11.7.1 5.3-1.9 10.4-5.7 14.1zm-92-71.7v28c0 .7-.3 1.4-.7 2l-14.4 16.6c-.6.7-1.4 1-2.3 1-.7 0-1.4-.2-2-.7-1.3-1.1-1.4-3-.3-4.3l13.6-15.8V254c0-1.7 1.4-3 3-3 1.8.1 3.1 1.4 3.1 3.1z"/></symbol><symbol viewBox="-44 67.8 469.8 426.7" id="icon-environment" xmlns="http://www.w3.org/2000/svg"><path d="M415.2 110c-56.9 0-137.2 4.7-178.2 45.8-30.3 30.2-31.3 88.6-12.9 124.8-19.7 28.4-32.8 59.8-41.2 91.6-7.8-50.5-20.6-88.9-35.3-118.3 28.2-32.2 32.4-105.1-2.7-140.2-41-41-121.4-45.8-178.2-45.8-5.9 0-10.7 4.8-10.7 10.7 0 56.9 4.7 137.2 45.8 178.2C19.1 274 45.7 281.7 72 281.7c21.3 0 42.5-5.1 58.5-14.2 21.7 45.4 38.9 113.3 38.9 216.3 0 5.9 4.8 10.7 10.7 10.7 5.9 0 10.7-4.8 10.7-10.6 0-57.9 9.8-127.4 46.7-184.5 16 15.6 44.1 24.6 72.4 24.6 26.3 0 52.9-7.7 70.2-25 41-41 45.8-121.4 45.8-178.2-.1-6.1-4.9-10.8-10.7-10.8zM16.9 241.6C-16.2 208.4-22 141.1-22.6 89.2c52 .6 119.3 6.4 152.4 39.5 23.9 23.9 23.3 77.4 6.5 104.6-25.3-41.5-53.3-60.7-69.1-71.5-3.5-2.4-6.1-4.1-7.6-5.6-4.2-4.2-10.9-4.2-15.1 0-4.2 4.2-4.2 10.9 0 15.1 2.1 2.1 5.8 4.7 10.7 8.1 14.9 10.2 41.5 28.4 65.4 69.2-27.6 16.3-80.1 16.6-103.7-7zm348 42.1c-26.7 26.7-90.1 22.8-112.9 0-.7-.7-1.4-1.4-2-2.2 20.3-25.8 47.1-48.2 82.2-64.7l1.7-.8c5.3-2.5 6.7-8.4 4.2-13.8s-9.7-7.2-15-4.7c-35.3 16.6-62.8 38.5-84.2 63.5-9.8-28.7-7.2-70.1 13.1-90.3 33.1-33.1 100.4-38.9 152.4-39.5-.6 52.1-6.4 119.4-39.5 152.5z"/></symbol><symbol viewBox="0 0 9.716 19.432" id="icon-facebook" xmlns="http://www.w3.org/2000/svg"><path d="M7.942 3.227h1.773V.137A22.863 22.863 0 007.132 0c-2.558 0-4.31 1.608-4.31 4.566v2.721H0v3.454h2.822v8.691h3.46v-8.69H8.99l.43-3.454H6.282v-2.38c0-.998.27-1.681 1.66-1.681z"/></symbol><symbol viewBox="53.9 79.7 358.2 401.1" id="icon-filters" xmlns="http://www.w3.org/2000/svg"><path d="M235.5 435.1l.4-1.5h159.7c7.7 0 14-6.3 14-14s-6.3-14-14-14H235.8l-.4-1.5c-6.9-25.7-30.3-43.7-56.9-43.7-5.1 0-10.3.7-15.3 2-20.3 5.4-36.2 21.4-41.7 41.7l-.4 1.5H69.7c-7.6.1-13.8 6.4-13.8 14 0 7.7 6.3 14 14 14h51.3l.4 1.5c6.9 25.7 30.3 43.7 56.9 43.7 5.1 0 10.3-.7 15.3-2 20.3-5.4 36.2-21.4 41.7-41.7zm-57 15.8c-17.2 0-31.3-14-31.3-31.3 0-17.2 14-31.3 31.3-31.3s31.3 14 31.3 31.3-14 31.3-31.3 31.3zM402.2 310.3c7.9-13.7 10-29.7 5.8-45-7-25.8-30.5-43.8-57.2-43.8-5.2 0-10.4.7-15.5 2.1-20.3 5.5-36.3 21.5-41.7 41.7l-.4 1.5H69.9c-7.7 0-14 6.3-14 14s6.3 14 14 14h223.3l.4 1.5c7 25.8 30.5 43.8 57.2 43.8 5.2 0 10.4-.7 15.5-2.1 15.3-4.1 28-14 35.9-27.7zm-29.4-7.5c-5.9 5.9-13.7 9.2-22.1 9.3h-.2c-17.2 0-31.2-14-31.3-31.1v-.2c0-17.2 14-31.2 31.1-31.3h.2c17.2 0 31.2 14 31.3 31.1.1 8.4-3.2 16.2-9 22.2zM395.7 126.9H290.2l-.4-1.5c-6.9-25.7-30.3-43.7-56.9-43.7-5.1 0-10.3.7-15.3 2-20.3 5.4-36.2 21.4-41.7 41.7l-.4 1.5H70c-7.7 0-14 6.3-14 14s6.3 14 14 14h105.5l.4 1.5c6.9 25.7 30.3 43.7 56.9 43.7 5.1 0 10.3-.7 15.3-2 20.3-5.4 36.2-21.4 41.7-41.7l.4-1.5h105.5c7.7 0 14-6.3 14-14s-6.3-14-14-14zM255 163.1c-5.9 5.9-13.7 9.2-22.1 9.3h-.2c-17.2 0-31.2-14-31.3-31.1 0-8.4 3.2-16.2 9-22.2 5.9-5.9 13.7-9.2 22.1-9.3h.2c17.2 0 31.2 14 31.3 31.1.1 8.3-3.1 16.2-9 22.2z"/></symbol><symbol viewBox="-454 259 50 44" id="icon-gallery" xmlns="http://www.w3.org/2000/svg"><path d="M-409.6 259h-38.8c-3.1 0-5.6 2.5-5.6 5.6v32.8c0 3.1 2.5 5.6 5.6 5.6h38.8c3.1 0 5.6-2.5 5.6-5.6v-32.8c0-3.1-2.5-5.6-5.6-5.6zm3.6 6.6v24l-13.8-13.8c-.4-.4-1-.4-1.4 0l-13.3 13.3-5.8-5.8c-.4-.4-1-.4-1.4 0l-10.3 10.3v-28c0-2.5 2.1-4.6 4.6-4.6h36.8c2.5 0 4.6 2.1 4.6 4.6zm-46 30.8l11-11 12.8 12.8c.2.2.5.3.7.3s.5-.1.7-.3c.4-.4.4-1 0-1.4l-6.3-6.3 12.6-12.6 14.5 14.5v4c0 2.5-2.1 4.6-4.6 4.6h-36.8c-2.5 0-4.6-2.1-4.6-4.6z"/><path d="M-435 277.5c3 0 5.5-2.5 5.5-5.5s-2.5-5.5-5.5-5.5-5.5 2.5-5.5 5.5 2.5 5.5 5.5 5.5zm0-9c1.9 0 3.5 1.6 3.5 3.5s-1.6 3.5-3.5 3.5-3.5-1.6-3.5-3.5 1.6-3.5 3.5-3.5z"/></symbol><symbol id="icon-globe" viewBox="0 0 25 25" xml:space="preserve" xmlns="http://www.w3.org/2000/svg"><style>.aqst0{fill:#010101}</style><path class="aqst0" d="M12.5.16C5.66.16.08 5.74.08 12.58S5.66 25 12.5 25c3.3 0 6.42-1.3 8.77-3.65 2.35-2.35 3.65-5.47 3.65-8.77C24.92 5.74 19.34.16 12.5.16zm8.49 18.67c-.06.21-.15.48-.06.76a10.93 10.93 0 01-8.43 3.96c-6.05 0-10.97-4.92-10.97-10.97 0-1.78.43-3.46 1.18-4.95 1.26 0 1.74.23 1.82.33 0 .03-.01.14-.16.38-.93 1.5-1.2 2.45-.91 3.18.29.74 1.03.94 1.58 1.09.21.06.42.11.57.19.56.27 2.02.95 2.32 1.24v.84c0 .79.73 1.2 1.25 1.5.19.11.49.28.58.39.01 3.93.74 4.8 1.28 5.11.18.1.38.16.58.16.84 0 1.51-.93 1.49-1.67v-.88c.06-.18.46-.61.74-.9.84-.87 1.99-2.05 1.99-3.7 0-.63-.32-.96-.59-1.14-.27-.17-.58-.24-.88-.3-.83-.18-1.12-.34-1.56-1.03-.25-.4-.64-1.01-1.42-1.01-.67 0-1.04.27-1.35.49-.31.23-.58.42-1.4.42-.78 0-1.24-.44-1.39-.82-.05-.13-.15-.45.08-.68.04-.04.06-.05.06-.05.08-.01.32.11.47.19.48.24 1.39.69 2.21-.14.31-.31.49-.55.6-.7.57 0 1.18.01 1.68-.15.7-.23 1.1-.77 1.1-1.49V8.4c.67-.49.49-1.2.56-1.38.12-.03.28-.02.35-.02l1.31-.55c.32-.03 1.02-.18 2.37-1.04a1.187 1.187 0 00-.11-2.07c-.22-.11-.35-.17-.54-.17h-2.8c-1.88 0-2.91 0-5.77.95-1.84.62-3.23.81-4.22.86 2-2.07 4.8-3.36 7.9-3.36 5.43 0 9.96 3.97 10.82 9.16-.09.22-.12.43-.13.6-.24-.06-.52-.2-.81-.35-.5-.25-1.07-.53-1.7-.53-.51 0-1.03 0-1.49.15-.68.23-1.07.77-1.07 1.49 0 .19 0 .19-.2.32-.3.19-.92.59-.7 1.66.16.76.46 1.27.94 1.56.69.42 1.45.21 2.01.05.19-.05.41-.11.51-.11.04 0 .05 0 .09.06.1.16.18.44.23.65.32 1.41.1 2.12-.01 2.5zM5.76 11.3c-.11-.03-.22-.07-.33-.09-.2-.06-.54-.15-.61-.23-.01-.04-.08-.46.8-1.88.54-.87.39-1.5.18-1.87-.21-.36-.57-.63-1.09-.8 1.07-.06 2.6-.27 4.57-.92 2.64-.88 3.53-.88 5.31-.88h1.91c-.89.46-1.05.36-1.14.37l-1.31.55c-.91.07-1.48.69-1.48 1.64v.08c-.27.2-.54.51-.54 1.21 0 .04 0 .06-.01.07-.18.13-1.04.12-1.29.11-.52 0-.84.02-1.16.53-.07.12-.18.29-.5.61-.04.04-.06.05-.06.05-.08.01-.32-.12-.47-.19-.49-.24-1.39-.69-2.22.14-.4.4-.59.94-.56 1.5zm5.87 9.1s-.01 0 0 0c-.17-.37-.4-1.34-.4-3.68 0-.84-.76-1.28-1.32-1.59-.16-.09-.42-.24-.52-.33-.01-.78.01-.87-.02-1.06.81-.11 1.23-.42 1.55-.65.22-.16.3-.21.45-.22.06.06.16.22.23.33.67 1.05 1.29 1.41 2.47 1.67.1.02.23.05.32.08-.03 1.03-.85 1.88-1.58 2.63-1.23 1.28-1.21 1.41-1.18 2.82zM22.41 16c-.12-.5-.43-1.84-1.74-1.84-.3 0-.61.08-.9.17-.3.08-.72.2-.86.11-.08-.05-.19-.24-.27-.61-.01-.04-.01-.07-.01-.09.02-.02.05-.04.08-.05.3-.19.87-.56.87-1.54 0-.04 0-.07.01-.08.15-.1.76-.1 1.1-.1.29 0 .66.19 1.05.38.5.25 1.07.53 1.7.53h.04c-.04 1.43-.35 2.79-.89 4.04-.05-.29-.1-.59-.18-.92z"/></symbol><symbol viewBox="0 0 19.438 19.441" id="icon-instagram" xmlns="http://www.w3.org/2000/svg"><path d="M19.39 5.716c-.046-1.033-.214-1.744-.453-2.358a4.752 4.752 0 00-1.124-1.725 4.769 4.769 0 00-1.721-1.12c-.618-.24-1.325-.406-2.358-.452C12.694.012 12.363 0 9.724 0c-2.641 0-2.97.012-4.006.057-1.034.046-1.745.213-2.36.452a4.74 4.74 0 00-1.724 1.124 4.778 4.778 0 00-1.12 1.721c-.24.618-.408 1.325-.452 2.357C.013 6.752 0 7.083 0 9.722c0 2.641.013 2.971.057 4.008.047 1.031.213 1.742.452 2.358a4.811 4.811 0 001.125 1.725 4.762 4.762 0 001.721 1.119c.618.24 1.325.406 2.357.453 1.038.045 1.367.057 4.009.057 2.639 0 2.969-.012 4.006-.057 1.032-.047 1.743-.213 2.357-.453a4.96 4.96 0 002.845-2.844c.24-.62.407-1.327.453-2.358.046-1.037.056-1.367.056-4.008 0-2.639-.003-2.97-.048-4.006zm-1.752 7.938c-.043.949-.201 1.462-.334 1.804a3.223 3.223 0 01-1.846 1.845c-.342.133-.858.293-1.805.334-1.025.047-1.332.057-3.927.057-2.594 0-2.904-.01-3.927-.057-.949-.041-1.463-.201-1.804-.334a3.019 3.019 0 01-1.115-.725 3 3 0 01-.725-1.118c-.135-.342-.293-.857-.336-1.803-.045-1.025-.057-1.334-.057-3.928s.012-2.905.057-3.927c.043-.95.201-1.462.336-1.804.155-.42.402-.804.728-1.116a3.01 3.01 0 011.116-.725c.343-.133.858-.293 1.805-.335 1.025-.045 1.333-.057 3.928-.057 2.597 0 2.904.012 3.927.057.949.042 1.462.202 1.804.335.422.155.805.402 1.117.725.322.315.569.695.725 1.117.133.342.291.858.334 1.804.046 1.025.057 1.333.057 3.927-.002 2.594-.012 2.897-.058 3.924z"/><path d="M9.724 4.729a4.995 4.995 0 000 9.988 4.994 4.994 0 000-9.988zm0 8.233a3.24 3.24 0 11.001-6.481 3.24 3.24 0 01-.001 6.481zM16.081 4.531a1.166 1.166 0 11-2.332 0 1.166 1.166 0 012.332 0z"/></symbol><symbol id="icon-instagram-colored" viewBox="0 0 560 560" xml:space="preserve" xmlns="http://www.w3.org/2000/svg"><style>.asst0{fill:url(#asSVGID_1_)}.asst1{fill:url(#asSVGID_2_)}.asst2{fill:url(#asSVGID_3_)}</style><linearGradient id="asSVGID_1_" gradientUnits="userSpaceOnUse" x1="0" y1="-.076" x2="1" y2="-.076" gradientTransform="scale(-564.8644) rotate(-73.16 -.256 .419)"><stop offset="0" stop-color="#515bd4"/><stop offset=".26" stop-color="#9510b8"/><stop offset=".66" stop-color="#e51804"/><stop offset="1" stop-color="#feda77"/></linearGradient><path class="asst0" d="M280 0c-76 0-85.6.3-115.4 1.7s-50.2 6.1-68 13C78.2 21.9 62.6 31.4 47 47S21.9 78.2 14.7 96.6c-6.9 17.8-11.7 38.2-13 68C.3 194.4 0 204 0 280s.3 85.6 1.7 115.4 6.1 50.2 13 68c7.2 18.4 16.7 34 32.3 49.6 15.6 15.6 31.2 25.1 49.6 32.3 17.8 6.9 38.2 11.7 68 13 29.9 1.4 39.4 1.7 115.4 1.7s85.6-.3 115.4-1.7 50.2-6.1 68-13c18.4-7.2 34-16.7 49.6-32.3 15.6-15.6 25.1-31.2 32.3-49.6 6.9-17.8 11.7-38.2 13-68 1.4-29.9 1.7-39.4 1.7-115.4s-.3-85.6-1.7-115.4-6.1-50.2-13-68c-7.2-18.4-16.7-34-32.3-49.6-15.6-15.6-31.2-25.1-49.6-32.3-17.8-6.9-38.2-11.7-68-13C365.6.3 356 0 280 0zm0 50.5c74.8 0 83.6.3 113.1 1.6 27.3 1.2 42.1 5.8 52 9.6 13.1 5.1 22.4 11.1 32.2 20.9 9.8 9.8 15.9 19.1 20.9 32.2 3.8 9.9 8.4 24.7 9.6 52 1.3 29.5 1.6 38.4 1.6 113.1 0 74.8-.3 83.6-1.6 113.1-1.2 27.3-5.8 42.1-9.6 52-5.1 13.1-11.1 22.4-20.9 32.2-9.8 9.8-19.1 15.9-32.2 20.9-9.9 3.8-24.7 8.4-52 9.6-29.5 1.3-38.4 1.6-113.1 1.6-74.8 0-83.6-.3-113.1-1.6-27.3-1.2-42.1-5.8-52-9.6-13.1-5.1-22.4-11.1-32.2-20.9S66.8 458.1 61.8 445c-3.8-9.9-8.4-24.7-9.6-52-1.3-29.5-1.6-38.4-1.6-113.1 0-74.8.3-83.6 1.6-113.1 1.2-27.3 5.8-42.1 9.6-52 5.1-13.1 11.1-22.4 20.9-32.2s19.1-15.9 32.2-20.9c9.9-3.8 24.7-8.4 52-9.6 29.5-1.4 38.3-1.6 113.1-1.6z"/><linearGradient id="asSVGID_2_" gradientUnits="userSpaceOnUse" x1="0" y1="-.076" x2="1" y2="-.076" gradientTransform="scale(-564.8644) rotate(-73.16 -.256 .419)"><stop offset="0" stop-color="#515bd4"/><stop offset=".26" stop-color="#9510b8"/><stop offset=".66" stop-color="#e51804"/><stop offset="1" stop-color="#ffbf00"/></linearGradient><path class="asst1" d="M280 373.3c-51.5 0-93.3-41.8-93.3-93.3s41.8-93.3 93.3-93.3 93.3 41.8 93.3 93.3-41.8 93.3-93.3 93.3zm0-237.1c-79.4 0-143.8 64.4-143.8 143.8S200.6 423.8 280 423.8 423.8 359.4 423.8 280 359.4 136.2 280 136.2z"/><linearGradient id="asSVGID_3_" gradientUnits="userSpaceOnUse" x1="0" y1="-.252" x2="1" y2="-.252" gradientTransform="scale(-564.8644) rotate(-73.16 -.256 .419)"><stop offset="0" stop-color="#515bd4"/><stop offset=".26" stop-color="#9510b8"/><stop offset=".66" stop-color="#e51804"/><stop offset="1" stop-color="#ffbf00"/></linearGradient><path class="asst2" d="M463.1 130.5c0 18.6-15 33.6-33.6 33.6s-33.6-15-33.6-33.6 15-33.6 33.6-33.6 33.6 15.1 33.6 33.6z"/></symbol><symbol viewBox="-238.9 262.8 47.9 36.6" id="icon-mail" xmlns="http://www.w3.org/2000/svg"><path d="M-195.2 262.8h-39.5c-2.3 0-4.2 1.9-4.2 4.2v28.2c0 2.3 1.9 4.2 4.2 4.2h39.5c2.3 0 4.2-1.9 4.2-4.2V267c0-2.3-1.9-4.2-4.2-4.2zm-9.5 18.2l10.8-10.8v21.6l-10.8-10.8zm-30.1-15.5h39.5c.6 0 1.1.4 1.3 1l-17 17c-2.2 2.2-5.9 2.2-8.1 0l-17-16.9c.1-.7.6-1.1 1.3-1.1zm9.3 15.5l-10.7 10.7v-21.4l10.7 10.7zm30.2 15.5h-39.5c-.7 0-1.2-.4-1.3-1.1l12.5-12.5 2.6 2.6c1.6 1.6 3.7 2.5 5.9 2.5s4.3-.9 5.9-2.5l2.6-2.6 12.6 12.6c-.2.6-.7 1-1.3 1z"/></symbol><symbol viewBox="-231.8 257.4 33.6 47.3" id="icon-marker" xmlns="http://www.w3.org/2000/svg"><path d="M-215 257.4c-9.2 0-16.8 7.5-16.8 16.8 0 10.7 15.3 28.6 15.9 29.4l.9 1.1.9-1.1c.6-.7 15.9-18.7 15.9-29.4 0-9.2-7.6-16.8-16.8-16.8zm0 43.5c-3.3-4.1-14.4-18.4-14.4-26.8 0-7.9 6.4-14.4 14.4-14.4s14.4 6.5 14.4 14.4c0 8.5-11.1 22.7-14.4 26.8z"/><path d="M-215 267.8c-3.5 0-6.4 2.9-6.4 6.4s2.9 6.4 6.4 6.4 6.4-2.9 6.4-6.4-2.9-6.4-6.4-6.4zm0 10.4c-2.2 0-4-1.8-4-4s1.8-4 4-4 4 1.8 4 4-1.8 4-4 4z"/></symbol><symbol viewBox="-23 25 512 512" id="icon-medal" xmlns="http://www.w3.org/2000/svg"><path d="M260.6 412.9l50 113.5c1.8 4 5.7 6.6 10.1 6.6h.1c4.4 0 8.3-2.6 10-6.6l26.8-62.3 1.5-3.4 3.5 1.2 64.2 21.8c1.1.4 2.3.6 3.5.6 3.1 0 6-1.3 8.1-3.6 2.9-3.2 3.7-7.9 2-11.9l-56.3-127.7-1-2.2 1.4-1.9c12.5-16.3 22.3-34.4 29-53.8 6.9-20 10.5-41 10.5-62.3 0-105.9-85.7-192-191-192S42 115.1 42 221c0 21.3 3.5 42.3 10.5 62.3 6.7 19.3 16.5 37.4 29 53.8l1.4 1.9-1 2.2-56.3 127.6c-1.8 4-1 8.7 2 11.9 2.1 2.3 5 3.6 8.1 3.6 1.2 0 2.4-.2 3.5-.6l64.2-21.8 3.5-1.2 1.5 3.4 26.8 62.3c1.7 4 5.7 6.6 10.1 6.6 4.4 0 8.3-2.6 10.1-6.6l50-113.5 1.2-2.7 2.9.4c7.8 1 15.6 1.4 23.4 1.4 7.8 0 15.7-.5 23.4-1.4l2.9-.4 1.4 2.7zm145.9 33.6l3.7 8.3-8.6-2.9-45-15.3c-1.1-.4-2.3-.6-3.5-.6-4.4 0-8.4 2.6-10.1 6.6L324.2 486l-3.6 8.4-3.7-8.4-33.6-76-1.8-4.2 4.4-1.3c28.5-8.2 55.1-23.3 77-43.7l4.1-3.8 2.3 5.1 37.2 84.4zM182.7 410l-33.5 76.1-3.7 8.4-3.6-8.4-18.7-43.4c-1.7-4-5.7-6.6-10.1-6.6-1.2 0-2.4.2-3.5.6l-45 15.3-8.6 2.9 3.7-8.3 37.2-84.3L99 357l4.1 3.8c21.9 20.4 48.5 35.5 77 43.7l4.4 1.3-1.8 4.2zm50.3-20c-93.2 0-169-75.8-169-169 0-93.7 75.8-170 169-170s169 76.3 169 170c0 93.2-75.8 169-169 169z"/><path d="M329.1 189.8c-1.3-4-4.7-6.9-8.9-7.5l-51.3-7.5-2.1-.3-.9-1.9-23-46.5c-1.9-3.8-5.6-6.1-9.9-6.1-4.2 0-8 2.3-9.9 6.1l-23 46.5-.9 1.9-2.1.3-51.3 7.5c-4.2.6-7.6 3.5-8.9 7.5-1.3 4-.2 8.3 2.8 11.3l37.2 36.2 1.5 1.5-.4 2.1-8.8 51.1c-.7 4.2 1 8.3 4.4 10.8 1.9 1.4 4.1 2.1 6.5 2.1 1.8 0 3.5-.4 5.1-1.3l45.9-24.1 1.9-1 1.9 1 45.9 24.1c1.6.8 3.3 1.3 5.1 1.3 2.3 0 4.6-.7 6.5-2.1 3.4-2.5 5.1-6.6 4.4-10.8l-8.8-51.1-.4-2.1 1.5-1.5 37.2-36.2c3-3 4.1-7.3 2.8-11.3zm-39.9 16.7l-21 20.5c-2.6 2.5-3.8 6.2-3.2 9.7l5 29 1.4 8-7.2-3.8-26-13.7c-1.6-.8-3.3-1.3-5.1-1.3-1.8 0-3.5.4-5.1 1.3l-26 13.7-7.2 3.8 1.4-8 5-29c.6-3.6-.6-7.2-3.2-9.7l-21-20.5-5.8-5.7 8-1.2 29.1-4.2c3.6-.5 6.7-2.8 8.3-6l13-26.3 3.6-7.3 3.6 7.3 13 26.3c1.6 3.2 4.7 5.5 8.3 6l29.1 4.2 8 1.2-6 5.7z"/></symbol><symbol viewBox="0 0 128 128" id="icon-menu" xmlns="http://www.w3.org/2000/svg"><path d="M108 36H20a4 4 0 010-8h88a4 4 0 010 8zm4 28a4 4 0 00-4-4H20a4 4 0 000 8h88a4 4 0 004-4zm0 32a4 4 0 00-4-4H20a4 4 0 000 8h88a4 4 0 004-4z"/></symbol><symbol id="icon-phone" viewBox="0 0 25 25" xml:space="preserve" xmlns="http://www.w3.org/2000/svg"><style>.axst0{fill:#010101}</style><path class="axst0" d="M19.77 15.49c-.51-.53-1.13-.82-1.78-.82-.65 0-1.27.28-1.8.81l-1.67 1.66c-.14-.07-.27-.14-.41-.21-.19-.09-.37-.18-.52-.28-1.56-.99-2.98-2.29-4.34-3.96-.66-.83-1.1-1.54-1.42-2.25.43-.4.83-.81 1.22-1.2.15-.15.3-.3.44-.45 1.11-1.11 1.11-2.54 0-3.65L8.04 3.7c-.16-.16-.33-.33-.49-.5-.31-.32-.65-.66-.99-.98-.51-.5-1.12-.77-1.77-.77s-1.26.27-1.79.77l-.01.01-1.8 1.81C.52 4.72.13 5.54.05 6.5c-.13 1.54.33 2.98.68 3.92.85 2.31 2.13 4.44 4.04 6.73 2.31 2.76 5.09 4.94 8.27 6.48 1.21.58 2.83 1.26 4.64 1.37h.33c1.22 0 2.24-.44 3.05-1.31.01-.01.02-.02.02-.03.27-.33.59-.63.92-.96.23-.22.46-.44.69-.68.52-.54.8-1.18.8-1.83 0-.65-.28-1.28-.81-1.81l-2.91-2.89zm1.89 5.56c-.01 0-.01 0 0 0-.21.22-.42.42-.64.64-.34.33-.69.67-1.02 1.06-.53.57-1.16.84-1.98.84-.08 0-.16 0-.24-.01-1.57-.1-3.02-.71-4.12-1.23-2.99-1.45-5.61-3.5-7.79-6.1-1.8-2.17-3-4.17-3.8-6.33-.5-1.32-.68-2.34-.6-3.31.06-.61.29-1.13.73-1.56L4 3.25c.26-.25.53-.38.8-.38.33 0 .6.2.77.37l.02.02c.32.3.63.61.95.94.16.17.33.34.5.51l1.44 1.44c.56.56.56 1.08 0 1.64-.15.15-.3.31-.45.45-.45.46-.87.88-1.33 1.29-.01.01-.02.02-.02.03-.45.45-.37.9-.27 1.2.01.02.01.03.02.05.37.91.9 1.76 1.7 2.78l.01.01c1.46 1.79 2.99 3.19 4.69 4.26.22.14.44.25.65.35.19.09.37.18.52.28.02.01.04.03.06.04.18.09.35.13.52.13.44 0 .71-.27.8-.36l1.8-1.8c.18-.18.46-.4.8-.4.33 0 .6.21.76.39l.01.01 2.91 2.91c.54.52.54 1.08 0 1.64zM13.52 5.95c1.38.23 2.64.89 3.64 1.89s1.65 2.26 1.89 3.64c.06.35.36.59.7.59.04 0 .08-.01.12-.01.39-.06.65-.43.59-.82-.28-1.67-1.08-3.2-2.29-4.41s-2.73-2-4.41-2.29a.72.72 0 00-.82.58c-.06.39.19.76.58.83zM24.98 11.03c-.47-2.75-1.77-5.26-3.76-7.26S16.72.48 13.96.01c-.39-.07-.75.2-.82.58-.06.39.2.75.59.82 2.46.42 4.7 1.58 6.49 3.36 1.78 1.78 2.94 4.03 3.36 6.49.06.35.36.59.7.59.04 0 .08-.01.12-.01a.69.69 0 00.58-.81z"/></symbol><symbol viewBox="-260.3 267.7 26.6 26.6" id="icon-pill" xmlns="http://www.w3.org/2000/svg"><path d="M-235.7 269.7c-2.8-2.7-7.2-2.7-9.9 0l-12.7 12.7c-2.7 2.8-2.7 7.2 0 9.9 1.3 1.3 3.1 2 4.9 2 1.8 0 3.6-.7 5-2l12.7-12.7c2.7-2.8 2.7-7.2 0-9.9zm-14.1 21.2c-2 1.9-5.2 1.9-7.1 0-1.9-1.9-1.9-5.1 0-7.1l5.6-5.6 7.1 7.1-5.6 5.6zm12.7-12.7l-5.6 5.6-7.1-7.1 5.6-5.6c1-1 2.2-1.4 3.5-1.4 1.3 0 2.6.5 3.6 1.4 1.9 1.9 1.9 5.1 0 7.1z"/></symbol><symbol viewBox="-459.9 268.5 20.3 24.9" id="icon-play" xmlns="http://www.w3.org/2000/svg"><path d="M-440 280.2l-18.3-11.5c-.3-.2-.7-.2-1 0-.3.2-.5.5-.5.9v22.9c0 .4.2.7.5.9.2.1.3.1.5.1s.4-.1.5-.2l18.3-11.5c.3-.2.5-.5.5-.8s-.2-.7-.5-.8zm-17.9 10.5v-19.3l15.4 9.7-15.4 9.6z"/></symbol><symbol viewBox="87.2 135.2 291.6 291.6" id="icon-quality" xmlns="http://www.w3.org/2000/svg"><path d="M318.5 247.9l-53.4-7.8-23.9-48.4c-1.5-3-4.6-4.8-8.2-4.8-3.6 0-6.8 1.8-8.2 4.8L200.9 240l-53.4 7.8c-2 .3-3.9 1.2-5.3 2.7-3.5 3.6-3.5 9.5.2 13l38.6 37.6-9.1 53.1c-.3 2 0 4 .9 5.8 1.1 2.2 3.1 3.8 5.4 4.5 2.3.7 4.8.5 7-.6l47.7-25.1 47.7 25.1c1.3.7 2.8 1.1 4.3 1.1.5 0 1 0 1.5-.1 5-.9 8.4-5.6 7.5-10.6l-9.1-53.1 38.6-37.6c1.4-1.4 2.4-3.3 2.7-5.3.9-5-2.6-9.7-7.6-10.4zM266 299.5l6.8 39.6-35.5-18.7a9.33 9.33 0 00-8.6 0l-35.5 18.7 6.8-39.6c.5-3-.5-6-2.6-8.1l-28.7-28 39.7-5.8a9 9 0 006.9-5l17.8-36 17.8 36a9 9 0 006.9 5l39.7 5.8-28.7 28c-2.3 2.1-3.3 5.1-2.8 8.1z"/><path d="M233 135.2c-80.4 0-145.8 65.4-145.8 145.8S152.6 426.8 233 426.8 378.8 361.4 378.8 281 313.4 135.2 233 135.2zm0 273.6c-70.5 0-127.8-57.3-127.8-127.8 0-34.1 13.3-66.2 37.4-90.4 24.1-24.1 56.2-37.4 90.4-37.4 70.4.1 127.7 57.4 127.8 127.8 0 70.5-57.3 127.8-127.8 127.8z"/></symbol><symbol id="icon-quote" viewBox="-244 251 71 60" xml:space="preserve" xmlns="http://www.w3.org/2000/svg"><style>.bbst0{fill:none}.bbst1{fill:#263938}</style><path class="bbst0" d="M-243.9 250.9h71v60h-71z"/><path class="bbst1" d="M-173.2 260.3c-10.6 5.2-15.9 11.3-15.9 18.4 4.5.5 8.2 2.4 11.2 5.5 3 3.2 4.4 6.8 4.4 11 0 4.4-1.4 8.2-4.3 11.2s-6.5 4.6-10.8 4.6c-4.9 0-9.1-2-12.6-5.9-3.6-3.9-5.3-8.7-5.3-14.4 0-16.9 9.5-30.2 28.4-39.7l4.9 9.3zm-37.4 0c-10.7 5.2-16 11.3-16 18.4 4.6.5 8.4 2.4 11.3 5.5 3 3.2 4.4 6.8 4.4 11 0 4.4-1.5 8.2-4.4 11.2s-6.5 4.6-10.9 4.6c-4.9 0-9-2-12.6-5.9-3.6-3.9-5.3-8.7-5.3-14.4 0-16.9 9.4-30.2 28.2-39.7l5.3 9.3z"/></symbol><symbol id="icon-quote-white" viewBox="-244 251 71 60" xml:space="preserve" xmlns="http://www.w3.org/2000/svg"><style>.bcst0{fill:#fff}</style><path class="bcst0" d="M-173.1 260.3c-10.6 5.2-15.9 11.3-15.9 18.4 4.5.5 8.2 2.4 11.2 5.5 3 3.2 4.4 6.8 4.4 11 0 4.4-1.4 8.2-4.3 11.2s-6.5 4.6-10.8 4.6c-4.9 0-9.1-2-12.6-5.9-3.6-3.9-5.3-8.7-5.3-14.4 0-16.9 9.5-30.2 28.4-39.7l4.9 9.3zm-37.4 0c-10.7 5.2-16 11.3-16 18.4 4.6.5 8.4 2.4 11.3 5.5 3 3.2 4.4 6.8 4.4 11 0 4.4-1.5 8.2-4.4 11.2s-6.5 4.6-10.9 4.6c-4.9 0-9-2-12.6-5.9-3.6-3.9-5.3-8.7-5.3-14.4 0-16.9 9.4-30.2 28.2-39.7l5.3 9.3z"/></symbol><symbol id="icon-search" viewBox="0 0 14 14" xml:space="preserve" xmlns="http://www.w3.org/2000/svg"><style>.bdst0{fill-rule:evenodd;clip-rule:evenodd;fill:#262930}</style><path class="bdst0" d="M10.1 9.4c.9-1 1.4-2.3 1.4-3.7C11.5 2.7 9 .2 6 .2S.5 2.7.5 5.7 3 11.3 6 11.3c1.3 0 2.4-.4 3.4-1.1l3.6 3.6.7-.7-3.6-3.7zm-4.1.9c-2.5 0-4.5-2-4.5-4.5s2-4.5 4.5-4.5 4.5 2 4.5 4.5-2 4.5-4.5 4.5z"/></symbol><symbol viewBox="-63 25 432 512" id="icon-shield" xmlns="http://www.w3.org/2000/svg"><path d="M146.9 531.8c1.9.8 3.9 1.2 6 1.2s4.1-.4 6-1.2c61.2-25 113-67.1 149.8-121.9 36.8-54.8 56.2-118.6 56.2-184.6v-98.9c0-6.5-3.9-12.3-9.8-14.8l-196-81.4c-1.9-.8-4-1.2-6.1-1.2s-4.2.4-6.1 1.2l-196 81.4c-6 2.5-9.9 8.3-9.9 14.8v98.9c0 66 19.4 129.9 56.2 184.6 36.8 54.8 88.6 96.9 149.7 121.9zM-27 225.3V137l2.5-1 176-73.1 1.5-.6 1.5.6 176 73.1 2.5 1v88.3c0 118.5-70 225.9-178.4 273.7l-1.6.7-1.6-.7C43 451.2-27 343.8-27 225.3z"/><path d="M75 249c-4.3 0-8.3 1.7-11.3 4.7s-4.7 7-4.7 11.3 1.7 8.3 4.7 11.3l55.9 55.9c3 3 7 4.7 11.3 4.7 4.3 0 8.3-1.7 11.3-4.7l100.2-100.1c6.2-6.2 6.2-16.4 0-22.6-3-3-7-4.7-11.3-4.7-4.3 0-8.3 1.7-11.3 4.7l-86 86-2.8 2.8-2.8-2.8-41.8-41.8c-3.1-3-7.2-4.7-11.4-4.7z"/></symbol><symbol id="icon-socials-fb" viewBox="-301 390 8 14" xml:space="preserve" xmlns="http://www.w3.org/2000/svg"><style>.bfst0{fill:#fff}</style><path class="bfst0" d="M-293.7 397.8l.4-2.4h-2.4v-1.6c0-.7.3-1.3 1.4-1.3h1.1v-2.1s-1-.2-2-.2c-2 0-3.3 1.2-3.3 3.3v1.8h-2.2v2.4h2.2v5.9c.4.1.9.1 1.4.1s.9 0 1.4-.1v-5.9h2z"/></symbol><symbol id="icon-socials-ig" viewBox="0 0 16 16" xml:space="preserve" xmlns="http://www.w3.org/2000/svg"><style>.bgst0{fill:#262930}</style><path class="bgst0" d="M10.4 5.6c-.5-.5-1.2-.8-1.9-.9-.7-.1-1.4 0-2 .3s-1.1.9-1.4 1.5-.4 1.3-.3 2 .4 1.3.9 1.8 1.1.8 1.8.9c.7.1 1.4 0 2-.3.6-.3 1.1-.8 1.4-1.4.3-.6.4-1.3.3-2 0-.7-.3-1.4-.8-1.9zM10.1 9c-.2.4-.6.8-1 1s-.9.3-1.4.2c-.5-.1-.9-.3-1.3-.6-.3-.3-.6-.8-.6-1.3-.1-.5 0-1 .2-1.4.2-.4.6-.8 1-1 .4-.2.9-.3 1.4-.2.5.1.9.3 1.3.6.3.3.6.8.6 1.3.1.5 0 1-.2 1.4zM11.9 3.6c-.3 0-.5.2-.5.5s.2.5.5.5.5-.2.5-.5-.3-.5-.5-.5z"/><path class="bgst0" d="M11.5.5h-7c-2.2 0-4 1.8-4 4v7c0 2.2 1.8 4 4 4h7c2.2 0 4-1.8 4-4v-7c0-2.2-1.8-4-4-4zm3 11c0 1.7-1.3 3-3 3h-7c-1.7 0-3-1.3-3-3v-7c0-1.7 1.3-3 3-3h7c1.7 0 3 1.3 3 3v7z"/></symbol><symbol id="icon-socials-in" viewBox="-298 390 14 13" xml:space="preserve" xmlns="http://www.w3.org/2000/svg"><style>.bhst0{fill:#fff}</style><path class="bhst0" d="M-294.3 391.4c0-.8-.6-1.4-1.5-1.4s-1.5.6-1.5 1.4c0 .8.6 1.4 1.5 1.4s1.5-.6 1.5-1.4zM-294.5 393.9h-2.7v8.2h2.7v-8.2zM-287.8 393.7c1.8 0 3.1 1.2 3.1 3.7v4.7h-2.7v-4.4c0-1.1-.4-1.8-1.4-1.8-.8 0-1.2.5-1.4 1-.1.2-.1.4-.1.7v4.6h-2.7V394h2.7v1.2c.4-.7 1-1.5 2.5-1.5z"/></symbol><symbol id="icon-socials-msg" viewBox="-297 389 16 16" xml:space="preserve" xmlns="http://www.w3.org/2000/svg"><style>.bist0{fill:#fff}</style><path class="bist0" d="M-289 389c-4.4 0-7.9 3.3-7.9 7.4 0 2.3 1.1 4.4 2.9 5.8v2.8l2.7-1.5c.7.2 1.5.3 2.3.3 4.4 0 7.9-3.3 7.9-7.4 0-4.1-3.5-7.4-7.9-7.4zm.8 9.9l-2-2.1-3.9 2.2 4.3-4.6 2 2.1 3.9-2.2-4.3 4.6z"/></symbol><symbol id="icon-socials-tw" viewBox="-299 392 12 10" xml:space="preserve" xmlns="http://www.w3.org/2000/svg"><style>.bjst0{fill:#fff}</style><path class="bjst0" d="M-293.4 394.8v.4l-.4-.1c-1.5-.2-2.9-.9-4-2l-.6-.6-.1.4c-.3.9-.1 1.9.5 2.5.3.4.3.4-.3.2-.2-.1-.4-.1-.4-.1-.1.1.1.8.3 1.1.2.4.7.8 1.1 1.1l.4.2h-.5c-.5 0-.5 0-.4.2.2.6.8 1.1 1.6 1.4l.5.2-.5.3c-.7.4-1.5.6-2.2.6-.4 0-.7 0-.7.1s1 .6 1.6.7c1.8.6 3.9.3 5.5-.6 1.1-.7 2.3-2 2.8-3.3.3-.7.6-1.9.6-2.5 0-.4 0-.4.5-.9.3-.3.5-.6.6-.7.1-.2.1-.2-.4 0-.7.3-.8.2-.5-.2.3-.3.6-.8.6-.9 0 0-.1 0-.3.1-.2.1-.5.2-.7.3l-.5.1-.4-.3c-.2-.2-.5-.3-.7-.4-.4-.1-1.1-.1-1.5 0-.9.6-1.5 1.6-1.5 2.7z"/></symbol><symbol id="icon-socials-yt" viewBox="0 0 114.9 81.3" xml:space="preserve" xmlns="http://www.w3.org/2000/svg"><style>.bkst0{fill:#062b31}</style><path class="bkst0" d="M111.5 18.9s-1.1-7.5-4.4-10.8c-4.2-4.3-8.9-4.3-11-4.6-15.4-1.1-38.5-1.1-38.5-1.1v.1s-23.1 0-38.5 1.1c-2.2.3-6.8.3-11 4.6C4.8 11.5 3.7 19 3.7 19 3 24.7 2.6 30.6 2.6 36.4v8.2c0 5.9.4 11.8 1.1 17.6 0 0 1.1 7.5 4.4 10.8 4.2 4.3 9.7 4.2 12.1 4.7 8.8.8 37.4 1.1 37.4 1.1s23.1 0 38.5-1.1c2.1-.3 6.8-.3 11-4.6 3.3-3.3 4.4-10.8 4.4-10.8.7-5.8 1.1-11.7 1.1-17.6v-8.2c-.1-5.9-.5-11.8-1.1-17.6zm-5.6 25.7c0 5.6-.4 11.2-1 16.7-.4 2.5-1.5 6.1-2.5 7-2.1 2.2-4.3 2.4-6.3 2.6l-.6.1c-14.7 1-36.9 1.1-37.9 1.1-1.2 0-28-.3-36.6-1-.5-.1-1-.2-1.6-.2-2.3-.3-4.9-.6-6.7-2.5-1-1-2.1-4.5-2.5-7-.6-5.5-1-11.1-1-16.7v-8.2c0-5.6.4-11.2 1-16.7.4-2.6 1.6-6.1 2.5-7.1 2.1-2.2 4.3-2.4 6.3-2.6l.7-.1c15-1.1 37.7-1.1 37.9-1.1.2 0 22.9 0 37.9 1.1l.7.1c2 .2 4.2.4 6.3 2.6 1 1 2.1 4.5 2.5 7.1.6 5.5 1 11.1 1 16.7v8.1z"/><path class="bkst0" d="M76.9 38.4L48.9 22c-.8-.5-1.7-.5-2.5 0-.8.4-1.3 1.3-1.3 2.2V57c0 .9.5 1.7 1.3 2.2.4.2.8.3 1.2.3.4 0 .9-.1 1.3-.3l28-16.4c.8-.4 1.2-1.3 1.2-2.2s-.4-1.7-1.2-2.2zM50.2 52.6V28.5l20.5 12-20.5 12.1z"/></symbol><symbol viewBox="-23 25 493 512" id="icon-structure" xmlns="http://www.w3.org/2000/svg"><path d="M460 420.2l-38.7-22.4v-79.6l38.7-22.4c9.6-5.5 12.8-17.8 7.3-27.3-5.5-9.6-17.8-12.8-27.3-7.3l-38.8 22.4-68.8-39.7v-79.5l38.8-22.4c9.6-5.5 12.8-17.8 7.3-27.3-5.5-9.6-17.8-12.8-27.3-7.3l-38.8 22.4L243.5 90V45c0-11-9-20-20-20s-20 9-20 20v44.8l-68.9 39.8-38.8-22.4c-9.6-5.5-21.8-2.2-27.3 7.3-5.5 9.6-2.2 21.8 7.3 27.3l38.8 22.4v79.5l-68.8 39.7L7 261.1c-9.6-5.5-21.8-2.3-27.3 7.3s-2.3 21.8 7.3 27.3l38.7 22.4v79.6L-13 420.2c-9.6 5.5-12.8 17.8-7.3 27.3 5.5 9.6 17.8 12.8 27.3 7.3l38.8-22.4 68.8 39.7V517c0 11 9 20 20 20s20-9 20-20v-44.8l68.9-39.8 68.9 39.8V517c0 11 9 20 20 20s20-9 20-20v-44.8l68.8-39.7 38.8 22.4c9.5 5.5 21.8 2.3 27.3-7.3 5.5-9.7 2.3-21.9-7.3-27.4zm-256.5-22.5l-68.9 39.8-68.9-39.8v-79.5l68.9-39.8 68.9 39.8v79.5zm-48.9-153.9v-79.5l68.9-39.8 68.9 39.8v79.5l-68.9 39.8-68.9-39.8zm226.7 153.9l-68.9 39.8-68.9-39.8v-79.5l68.9-39.8 68.9 39.8v79.5z"/></symbol><symbol viewBox="-260 267 26 27" id="icon-thumbs-up" xmlns="http://www.w3.org/2000/svg"><path d="M-239 276h-3v-6c0-1.7-1.3-3-3-3h-.4c-1.4 0-2.6.9-2.9 2.3l-2 5.5c-.3.7-.9 1.2-1.7 1.2h-8v18h21c2.8 0 5-2.2 5-5v-8c0-2.8-2.2-5-5-5zm-15 16h-4v-14h4v14zm18-3c0 1.7-1.3 3-3 3h-13v-14c1.6 0 3.1-1 3.6-2.5l2-5.6v-.1c.1-.5.5-.8 1-.8h.4c.6 0 1 .4 1 1v8h5c1.7 0 3 1.3 3 3v8z"/></symbol><symbol viewBox="-247 258.4 64 48.5" id="icon-tick" xmlns="http://www.w3.org/2000/svg"><path d="M-225.7 306.8l-21.3-21.3 5.9-5.9 15.5 15.4 36.8-36.7 5.9 5.9-42.8 42.6"/></symbol><symbol viewBox="67.2 135.6 331.7 290.9" id="icon-trade" xmlns="http://www.w3.org/2000/svg"><path d="M370.7 163.8c-37.6-37.6-98.6-37.6-136.2 0l-1.4 1.4-1.4-1.4c-37.6-37.6-98.6-37.6-136.2.1-37.6 37.6-37.6 98.5 0 136.1l20.5 20.5c-7.1 11.8-3.2 27.1 8.6 34.2 2.9 1.7 6 2.8 9.3 3.3-.4 1.7-.6 3.5-.6 5.2 0 13.8 11.2 25 25 25 2.4 0 4.8-.4 7.2-1 2.3 11.8 12.6 20.3 24.5 20.2 2.5 0 5-.4 7.4-1.1 2.7 13.5 15.9 22.3 29.4 19.6 4.8-1 9.3-3.3 12.8-6.8l13.7-13.7c.3-.3.6-.7.9-1 13 4.6 27.3-2.3 31.8-15.3.1-.2.1-.4.2-.6 11.3 7.9 26.9 5.2 34.8-6.1 4.2-6 5.6-13.6 3.7-20.7 13.6-2.3 22.7-15.2 20.4-28.8-.3-2-.9-3.9-1.7-5.7l27.2-27.2c37.6-37.6 37.6-98.6.1-136.2zM129.5 325.5l.6-.6 35-35c4.3-4.3 11.3-4.3 15.6 0 4.3 4.3 4.3 11.3 0 15.6l-10.4 10.4-25.3 25.3c-4.3 4.3-11.3 4.2-15.6-.1-4.1-4.4-4.1-11.3.1-15.6zm21 45.5c-4.3-4.3-4.3-11.3 0-15.6l4.5-4.5 25.3-25.3c4.3-4.3 11.3-4.3 15.6 0 4.3 4.3 4.3 11.3 0 15.6L166 371c-4.3 4.2-11.2 4.2-15.5 0zm31.7 19.2c-4.3-4.3-4.3-11.3 0-15.6l28.9-28.9c4.3-4.3 11.3-4.3 15.6 0 4.3 4.3 4.3 11.3 0 15.6l-29 28.9c-4.3 4.3-11.2 4.3-15.5 0zm47.4 19c-4.3 4.3-11.3 4.3-15.6 0-4.3-4.3-4.3-11.3 0-15.6l13.7-13.7c4.3-4.3 11.2-4.4 15.6-.1 4.3 4.3 4.4 11.2.1 15.6l-.1.1-13.7 13.7zm98.7-64.3c-4.3 4.3-11.3 4.3-15.6 0L280 312.1c-2.7-2.7-7.2-2.7-9.9 0s-2.7 7.2 0 9.9l38.2 38.2c4.2 4.4 4 11.4-.4 15.6-4.3 4-10.9 4-15.2 0l-30.4-30.4c-2.7-2.7-7.2-2.7-9.9 0s-2.7 7.2 0 9.9l17.7 17.7c4.3 4.3 4.3 11.3 0 15.6-2.6 2.6-6.4 3.7-10 3 2-12.7-6-24.8-18.5-28 5.6-12.6-.1-27.3-12.7-32.9-5.2-2.3-11-2.8-16.4-1.3-1.6-9.5-8.4-17.2-17.7-19.9 5.2-9.7 3.4-21.7-4.4-29.5-9.8-9.7-25.6-9.7-35.4 0l-29.8 30-19.9-19.9c-32.2-32.2-32.2-84.3 0-116.4s84.3-32.2 116.4 0l1.4 1.4-49.7 49.7c-2.7 2.7-2.7 7.2 0 9.9 16.3 16.3 42.7 16.3 58.9 0l.6-.6 95.3 95.3c4.4 4.2 4.4 11.2.1 15.5zm6.5-28.8l-91.9-91.9 19.6-19.6c2.7-2.8 2.6-7.2-.2-9.9-2.7-2.6-7-2.6-9.7 0l-30.1 30.1c-8.9 8.9-22.7 10.7-33.6 4.3l55.4-55.4c32.4-31.9 84.5-31.6 116.4.8 31.6 32.1 31.6 83.6 0 115.6l-25.9 26z"/></symbol></svg>