<svg xmlns="http://www.w3.org/2000/svg" viewBox="-63 25 432 512" width="40.5" height="48"><path d="M146.9 531.8c1.9.8 3.9 1.2 6 1.2s4.1-.4 6-1.2c61.2-25 113-67.1 149.8-121.9 36.8-54.8 56.2-118.6 56.2-184.6v-98.9c0-6.5-3.9-12.3-9.8-14.8l-196-81.4c-1.9-.8-4-1.2-6.1-1.2s-4.2.4-6.1 1.2l-196 81.4c-6 2.5-9.9 8.3-9.9 14.8v98.9c0 66 19.4 129.9 56.2 184.6 36.8 54.8 88.6 96.9 149.7 121.9zM-27 225.3V137l2.5-1 176-73.1 1.5-.6 1.5.6 176 73.1 2.5 1v88.3c0 118.5-70 225.9-178.4 273.7l-1.6.7-1.6-.7C43 451.2-27 343.8-27 225.3z"/><path d="M75 249c-4.3 0-8.3 1.7-11.3 4.7s-4.7 7-4.7 11.3 1.7 8.3 4.7 11.3l55.9 55.9c3 3 7 4.7 11.3 4.7 4.3 0 8.3-1.7 11.3-4.7l100.2-100.1c6.2-6.2 6.2-16.4 0-22.6-3-3-7-4.7-11.3-4.7-4.3 0-8.3 1.7-11.3 4.7l-86 86-2.8 2.8-2.8-2.8-41.8-41.8c-3.1-3-7.2-4.7-11.4-4.7z"/></svg>