<svg xmlns="http://www.w3.org/2000/svg" viewBox="7.2 54.8 451.6 452.5" width="47.9" height="48"><path d="M377 316.6c16.9-26.5 26.7-57.7 26.7-91.2 0-94.1-76.6-170.7-170.7-170.7S62.3 131.3 62.3 225.4c0 33.6 9.9 64.9 26.7 91.2l-79 86.6c-2.5 2.8-3.4 6.6-2.3 10.1s3.8 6.3 7.4 7.4l63.7 17.9 23.8 61.8c1.4 3.4 4.4 6 8 6.6.6.1 1.3.2 1.9.2 3 0 5.9-1.3 7.9-3.5l99-108.5c4.6.3 9.2.7 13.8.7s9.2-.3 13.8-.7l99 108.5c2 2.2 4.9 3.5 7.9 3.5.6 0 1.3-.1 1.9-.2 3.6-.6 6.6-3.2 8-6.6l23.8-61.8 63.7-17.9c3.5-1 6.3-3.8 7.4-7.4 1-3.5.1-7.4-2.3-10.1L377 316.6zM116.1 476.7L96.6 426c-1.2-3.1-3.8-5.5-7-6.4l-52.2-14.7 64.4-70.6c23.4 28.1 55.6 48.4 92.3 57.1l-78 85.3zM233 374.8c-82.3 0-149.3-67-149.3-149.3S150.7 76.1 233 76.1s149.3 67 149.3 149.3-67 149.4-149.3 149.4zm143.5 44.8c-3.2 1-5.9 3.3-7 6.4L350 476.7l-78-85.4c36.7-8.6 68.9-29 92.3-57.1l64.3 70.5-52.1 14.9z"/><path d="M337.5 167.9c-3.5-4.7-10.2-5.7-14.9-2.1l-119.7 89.8-36.2-45.2c-3.7-4.6-10.3-5.3-15-1.7-4.6 3.7-5.3 10.3-1.7 15l42.7 53.3c2.1 2.6 5.2 3.9 8.3 3.9 2.2 0 4.5-.7 6.4-2.1l128-96c4.7-3.5 5.7-10.2 2.1-14.9z"/></svg>