<svg xmlns="http://www.w3.org/2000/svg" viewBox="-237.8 255.5 45.7 51" width="43.01" height="48"><path d="M-192.9 268.3c-.9-1.5-2.9-3.3-7.7-3.3-1.6 0-3.5.2-5.4.6-2-6.2-5.2-10-9-10s-7 3.9-9 10c-1.9-.4-3.8-.6-5.4-.6-4.8 0-6.8 1.8-7.7 3.3-1.9 3.2-.1 7.9 4.2 12.8-4.3 4.8-6.1 9.5-4.2 12.7.9 1.5 2.9 3.3 7.7 3.3 1.6 0 3.5-.2 5.4-.6 2 6.2 5.2 10 9 10s7-3.9 9-10c1.9.4 3.8.6 5.4.6 4.8 0 6.8-1.8 7.7-3.3 1.9-3.2.1-7.9-4.2-12.7 4.3-4.9 6.1-9.6 4.2-12.8zm-7.7-.4c2.6 0 4.4.7 5.1 1.8 1.1 1.9-.3 5.3-3.7 9.1-1.5-1.4-3.1-2.7-5-4.1-.2-2.3-.6-4.4-1-6.3 1.6-.3 3.2-.5 4.6-.5zM-211 288c-1.3.8-2.7 1.5-4.1 2.1-1.3-.6-2.7-1.3-4-2.1-1.4-.8-2.7-1.6-3.9-2.4-.1-1.5-.2-3-.2-4.6s.1-3.1.2-4.6c1.2-.8 2.5-1.6 3.9-2.4 1.3-.8 2.7-1.5 4-2.1 1.3.6 2.7 1.3 4.1 2.1 1.4.8 2.7 1.6 3.9 2.4.1 1.5.2 3 .2 4.6s-.1 3.1-.2 4.6c-1.2.8-2.5 1.6-3.9 2.4zm3.5 1.5c-.2 1.2-.4 2.3-.6 3.3-1.1-.3-2.1-.7-3.2-1.1.7-.3 1.3-.7 2-1.1.5-.4 1.1-.8 1.8-1.1zm-11.1 2.2c-1.1.4-2.2.8-3.2 1.1-.2-1.1-.5-2.2-.6-3.3.6.4 1.3.8 1.9 1.2.6.3 1.3.6 1.9 1zm-7.5-8.5c-.9-.7-1.8-1.5-2.6-2.2.8-.7 1.7-1.5 2.6-2.2v4.4zm3.6-10.7c.2-1.2.4-2.3.6-3.3 1.1.3 2.1.7 3.2 1.1-.7.3-1.3.7-2 1.1-.5.4-1.1.8-1.8 1.1zm11.1-2.2c1.1-.4 2.2-.8 3.2-1.1.2 1.1.5 2.2.6 3.3-.6-.4-1.3-.8-1.9-1.2-.6-.3-1.3-.6-1.9-1zm7.5 8.5c.9.7 1.8 1.5 2.6 2.2-.8.7-1.7 1.5-2.6 2.2V281v-2.2zm-11.1-20.3c2.1 0 4.4 2.9 6 7.8-2 .6-4 1.3-6 2.3-2-.9-4.1-1.7-6-2.3 1.6-4.9 3.9-7.8 6-7.8zm-19.5 11.3c.7-1.2 2.5-1.8 5.1-1.8 1.4 0 3 .2 4.6.5-.5 1.9-.8 4.1-1 6.3-1.8 1.3-3.5 2.7-5 4.1-3.4-3.9-4.8-7.3-3.7-9.1zm5.1 24.3c-2.6 0-4.4-.7-5.1-1.8-1.1-1.9.3-5.3 3.7-9.1 1.5 1.4 3.1 2.7 5 4.1.2 2.3.6 4.4 1 6.3-1.6.3-3.2.5-4.6.5zm14.4 9.4c-2.1 0-4.4-2.9-6-7.8 2-.6 4-1.3 6-2.3 2 .9 4.1 1.7 6 2.3-1.6 4.9-3.9 7.8-6 7.8zm19.5-11.2c-.7 1.2-2.5 1.8-5.1 1.8-1.4 0-3-.2-4.6-.5.5-1.9.8-4.1 1-6.3 1.8-1.3 3.5-2.7 5-4.1 3.4 3.8 4.8 7.2 3.7 9.1z"/><circle cx="-215" cy="281" r="3"/></svg>