<svg xmlns="http://www.w3.org/2000/svg" width="19.438" height="19.441" viewBox="0 0 19.438 19.441"><path d="M19.39 5.716c-.046-1.033-.214-1.744-.453-2.358a4.752 4.752 0 00-1.124-1.725 4.769 4.769 0 00-1.721-1.12c-.618-.24-1.325-.406-2.358-.452C12.694.012 12.363 0 9.724 0c-2.641 0-2.97.012-4.006.057-1.034.046-1.745.213-2.36.452a4.74 4.74 0 00-1.724 1.124 4.778 4.778 0 00-1.12 1.721c-.24.618-.408 1.325-.452 2.357C.013 6.752 0 7.083 0 9.722c0 2.641.013 2.971.057 4.008.047 1.031.213 1.742.452 2.358a4.811 4.811 0 001.125 1.725 4.762 4.762 0 001.721 1.119c.618.24 1.325.406 2.357.453 1.038.045 1.367.057 4.009.057 2.639 0 2.969-.012 4.006-.057 1.032-.047 1.743-.213 2.357-.453a4.96 4.96 0 002.845-2.844c.24-.62.407-1.327.453-2.358.046-1.037.056-1.367.056-4.008 0-2.639-.003-2.97-.048-4.006zm-1.752 7.938c-.043.949-.201 1.462-.334 1.804a3.223 3.223 0 01-1.846 1.845c-.342.133-.858.293-1.805.334-1.025.047-1.332.057-3.927.057-2.594 0-2.904-.01-3.927-.057-.949-.041-1.463-.201-1.804-.334a3.019 3.019 0 01-1.115-.725 3 3 0 01-.725-1.118c-.135-.342-.293-.857-.336-1.803-.045-1.025-.057-1.334-.057-3.928s.012-2.905.057-3.927c.043-.95.201-1.462.336-1.804.155-.42.402-.804.728-1.116a3.01 3.01 0 011.116-.725c.343-.133.858-.293 1.805-.335 1.025-.045 1.333-.057 3.928-.057 2.597 0 2.904.012 3.927.057.949.042 1.462.202 1.804.335.422.155.805.402 1.117.725.322.315.569.695.725 1.117.133.342.291.858.334 1.804.046 1.025.057 1.333.057 3.927-.002 2.594-.012 2.897-.058 3.924z"/><path d="M9.724 4.729a4.995 4.995 0 000 9.988 4.994 4.994 0 000-9.988zm0 8.233a3.24 3.24 0 11.001-6.481 3.24 3.24 0 01-.001 6.481zM16.081 4.531a1.166 1.166 0 11-2.332 0 1.166 1.166 0 012.332 0z"/></svg>