<svg version="1.1" id="ahLayer_1" xmlns="http://www.w3.org/2000/svg" x="0" y="0" viewBox="-264.4 268 19.8 25" xml:space="preserve" width="19.8" height="25"><style>.ahst0{fill:#010101}</style><path class="ahst0" d="M-244.6 290.5l-1.3-16.4c0-.4-.4-.8-.9-.8h-2.6v-.2c0-2.8-2.3-5.1-5.1-5.1s-5.1 2.3-5.1 5.1v.2h-2.6c-.4 0-.8.4-.9.8l-1.3 16.4c-.1.6.2 1.3.6 1.8.4.5 1.1.8 1.7.8h15.1c.6 0 1.3-.3 1.7-.8.5-.5.7-1.2.7-1.8zm-13.2-17.4c0-1.8 1.5-3.3 3.3-3.3 1.8 0 3.3 1.5 3.3 3.3v.2h-6.7v-.2zm11.3 18c-.1.1-.2.2-.4.2H-262c-.2 0-.4-.1-.4-.2-.1-.1-.2-.2-.1-.4l1.3-15.6h1.8v4.3c0 .5.4.9.9.9s.9-.4.9-.9V275h6.7v4.3c0 .5.4.9.9.9s.9-.4.9-.9V275h1.8l1.3 15.6c-.4.2-.5.4-.5.5z"/></svg>