<svg xmlns="http://www.w3.org/2000/svg" viewBox="-23 174.3 512 298.7" width="48" height="28"><path d="M115.7 430.3H73c-5.9 0-10.7-4.8-10.7-10.7S67.1 409 73 409h42.7c5.9 0 10.7 4.8 10.7 10.7s-4.8 10.6-10.7 10.6zM462.3 430.3h-26.7c-5.9 0-10.7-4.8-10.7-10.7s4.8-10.7 10.7-10.7h17.8l14.4-76.6c-.2-39.2-33.7-72.7-74.9-72.7h-70L289 409h61.3c5.9 0 10.7 4.8 10.7 10.7s-4.8 10.7-10.7 10.7h-74.7c-3.2 0-6.3-1.5-8.3-4-2-2.5-2.8-5.8-2.1-9L304 246.7c1.1-4.9 5.4-8.3 10.4-8.3H393c52.9 0 96 43.1 96 96l-16.2 87.3c-.9 5-5.3 8.6-10.5 8.6z"/><path d="M393 473c-29.4 0-53.3-23.9-53.3-53.3s23.9-53.3 53.3-53.3 53.3 23.9 53.3 53.3S422.4 473 393 473zm0-85.3c-17.6 0-32 14.4-32 32s14.4 32 32 32 32-14.4 32-32-14.4-32-32-32zM158.3 473c-29.4 0-53.3-23.9-53.3-53.3s23.9-53.3 53.3-53.3 53.3 23.9 53.3 53.3-23.9 53.3-53.3 53.3zm0-85.3c-17.6 0-32 14.4-32 32s14.4 32 32 32 32-14.4 32-32-14.3-32-32-32zM115.7 238.3H30.3c-5.9 0-10.7-4.8-10.7-10.7S24.4 217 30.3 217h85.3c5.9 0 10.7 4.8 10.7 10.7s-4.7 10.6-10.6 10.6zM115.7 302.3H9c-5.9 0-10.7-4.8-10.7-10.7S3.1 281 9 281h106.7c5.9 0 10.7 4.8 10.7 10.7s-4.8 10.6-10.7 10.6zM115.7 366.3h-128c-5.9 0-10.7-4.8-10.7-10.7s4.8-10.7 10.7-10.7h128c5.9 0 10.7 4.8 10.7 10.7s-4.8 10.7-10.7 10.7z"/><path d="M275.7 430.3H201c-5.9 0-10.7-4.8-10.7-10.7S195.1 409 201 409h66.2l48.5-213.3H73c-5.9 0-10.7-4.8-10.7-10.7s4.8-10.7 10.7-10.7h256c3.2 0 6.3 1.5 8.3 4 2 2.5 2.8 5.8 2.1 9L286.1 422c-1.1 4.9-5.5 8.3-10.4 8.3z"/></svg>