<svg xmlns="http://www.w3.org/2000/svg" viewBox="-231.8 257.4 33.6 47.3" width="33.6" height="47.3"><path d="M-215 257.4c-9.2 0-16.8 7.5-16.8 16.8 0 10.7 15.3 28.6 15.9 29.4l.9 1.1.9-1.1c.6-.7 15.9-18.7 15.9-29.4 0-9.2-7.6-16.8-16.8-16.8zm0 43.5c-3.3-4.1-14.4-18.4-14.4-26.8 0-7.9 6.4-14.4 14.4-14.4s14.4 6.5 14.4 14.4c0 8.5-11.1 22.7-14.4 26.8z"/><path d="M-215 267.8c-3.5 0-6.4 2.9-6.4 6.4s2.9 6.4 6.4 6.4 6.4-2.9 6.4-6.4-2.9-6.4-6.4-6.4zm0 10.4c-2.2 0-4-1.8-4-4s1.8-4 4-4 4 1.8 4 4-1.8 4-4 4z"/></svg>