<svg xmlns="http://www.w3.org/2000/svg" viewBox="87.2 135.2 291.6 291.6" width="48" height="48"><path d="M318.5 247.9l-53.4-7.8-23.9-48.4c-1.5-3-4.6-4.8-8.2-4.8-3.6 0-6.8 1.8-8.2 4.8L200.9 240l-53.4 7.8c-2 .3-3.9 1.2-5.3 2.7-3.5 3.6-3.5 9.5.2 13l38.6 37.6-9.1 53.1c-.3 2 0 4 .9 5.8 1.1 2.2 3.1 3.8 5.4 4.5 2.3.7 4.8.5 7-.6l47.7-25.1 47.7 25.1c1.3.7 2.8 1.1 4.3 1.1.5 0 1 0 1.5-.1 5-.9 8.4-5.6 7.5-10.6l-9.1-53.1 38.6-37.6c1.4-1.4 2.4-3.3 2.7-5.3.9-5-2.6-9.7-7.6-10.4zM266 299.5l6.8 39.6-35.5-18.7a9.33 9.33 0 00-8.6 0l-35.5 18.7 6.8-39.6c.5-3-.5-6-2.6-8.1l-28.7-28 39.7-5.8a9 9 0 006.9-5l17.8-36 17.8 36a9 9 0 006.9 5l39.7 5.8-28.7 28c-2.3 2.1-3.3 5.1-2.8 8.1z"/><path d="M233 135.2c-80.4 0-145.8 65.4-145.8 145.8S152.6 426.8 233 426.8 378.8 361.4 378.8 281 313.4 135.2 233 135.2zm0 273.6c-70.5 0-127.8-57.3-127.8-127.8 0-34.1 13.3-66.2 37.4-90.4 24.1-24.1 56.2-37.4 90.4-37.4 70.4.1 127.7 57.4 127.8 127.8 0 70.5-57.3 127.8-127.8 127.8z"/></svg>