<svg xmlns="http://www.w3.org/2000/svg" viewBox="-238.9 262.8 47.9 36.6" width="47.9" height="36.6"><path d="M-195.2 262.8h-39.5c-2.3 0-4.2 1.9-4.2 4.2v28.2c0 2.3 1.9 4.2 4.2 4.2h39.5c2.3 0 4.2-1.9 4.2-4.2V267c0-2.3-1.9-4.2-4.2-4.2zm-9.5 18.2l10.8-10.8v21.6l-10.8-10.8zm-30.1-15.5h39.5c.6 0 1.1.4 1.3 1l-17 17c-2.2 2.2-5.9 2.2-8.1 0l-17-16.9c.1-.7.6-1.1 1.3-1.1zm9.3 15.5l-10.7 10.7v-21.4l10.7 10.7zm30.2 15.5h-39.5c-.7 0-1.2-.4-1.3-1.1l12.5-12.5 2.6 2.6c1.6 1.6 3.7 2.5 5.9 2.5s4.3-.9 5.9-2.5l2.6-2.6 12.6 12.6c-.2.6-.7 1-1.3 1z"/></svg>