<svg xmlns="http://www.w3.org/2000/svg" viewBox="-44 67.8 469.8 426.7" width="48" height="43.6"><path d="M415.2 110c-56.9 0-137.2 4.7-178.2 45.8-30.3 30.2-31.3 88.6-12.9 124.8-19.7 28.4-32.8 59.8-41.2 91.6-7.8-50.5-20.6-88.9-35.3-118.3 28.2-32.2 32.4-105.1-2.7-140.2-41-41-121.4-45.8-178.2-45.8-5.9 0-10.7 4.8-10.7 10.7 0 56.9 4.7 137.2 45.8 178.2C19.1 274 45.7 281.7 72 281.7c21.3 0 42.5-5.1 58.5-14.2 21.7 45.4 38.9 113.3 38.9 216.3 0 5.9 4.8 10.7 10.7 10.7 5.9 0 10.7-4.8 10.7-10.6 0-57.9 9.8-127.4 46.7-184.5 16 15.6 44.1 24.6 72.4 24.6 26.3 0 52.9-7.7 70.2-25 41-41 45.8-121.4 45.8-178.2-.1-6.1-4.9-10.8-10.7-10.8zM16.9 241.6C-16.2 208.4-22 141.1-22.6 89.2c52 .6 119.3 6.4 152.4 39.5 23.9 23.9 23.3 77.4 6.5 104.6-25.3-41.5-53.3-60.7-69.1-71.5-3.5-2.4-6.1-4.1-7.6-5.6-4.2-4.2-10.9-4.2-15.1 0-4.2 4.2-4.2 10.9 0 15.1 2.1 2.1 5.8 4.7 10.7 8.1 14.9 10.2 41.5 28.4 65.4 69.2-27.6 16.3-80.1 16.6-103.7-7zm348 42.1c-26.7 26.7-90.1 22.8-112.9 0-.7-.7-1.4-1.4-2-2.2 20.3-25.8 47.1-48.2 82.2-64.7l1.7-.8c5.3-2.5 6.7-8.4 4.2-13.8s-9.7-7.2-15-4.7c-35.3 16.6-62.8 38.5-84.2 63.5-9.8-28.7-7.2-70.1 13.1-90.3 33.1-33.1 100.4-38.9 152.4-39.5-.6 52.1-6.4 119.4-39.5 152.5z"/></svg>