<svg xmlns="http://www.w3.org/2000/svg" viewBox="53.9 79.7 358.2 401.1" width="42.87" height="48"><path d="M235.5 435.1l.4-1.5h159.7c7.7 0 14-6.3 14-14s-6.3-14-14-14H235.8l-.4-1.5c-6.9-25.7-30.3-43.7-56.9-43.7-5.1 0-10.3.7-15.3 2-20.3 5.4-36.2 21.4-41.7 41.7l-.4 1.5H69.7c-7.6.1-13.8 6.4-13.8 14 0 7.7 6.3 14 14 14h51.3l.4 1.5c6.9 25.7 30.3 43.7 56.9 43.7 5.1 0 10.3-.7 15.3-2 20.3-5.4 36.2-21.4 41.7-41.7zm-57 15.8c-17.2 0-31.3-14-31.3-31.3 0-17.2 14-31.3 31.3-31.3s31.3 14 31.3 31.3-14 31.3-31.3 31.3zM402.2 310.3c7.9-13.7 10-29.7 5.8-45-7-25.8-30.5-43.8-57.2-43.8-5.2 0-10.4.7-15.5 2.1-20.3 5.5-36.3 21.5-41.7 41.7l-.4 1.5H69.9c-7.7 0-14 6.3-14 14s6.3 14 14 14h223.3l.4 1.5c7 25.8 30.5 43.8 57.2 43.8 5.2 0 10.4-.7 15.5-2.1 15.3-4.1 28-14 35.9-27.7zm-29.4-7.5c-5.9 5.9-13.7 9.2-22.1 9.3h-.2c-17.2 0-31.2-14-31.3-31.1v-.2c0-17.2 14-31.2 31.1-31.3h.2c17.2 0 31.2 14 31.3 31.1.1 8.4-3.2 16.2-9 22.2zM395.7 126.9H290.2l-.4-1.5c-6.9-25.7-30.3-43.7-56.9-43.7-5.1 0-10.3.7-15.3 2-20.3 5.4-36.2 21.4-41.7 41.7l-.4 1.5H70c-7.7 0-14 6.3-14 14s6.3 14 14 14h105.5l.4 1.5c6.9 25.7 30.3 43.7 56.9 43.7 5.1 0 10.3-.7 15.3-2 20.3-5.4 36.2-21.4 41.7-41.7l.4-1.5h105.5c7.7 0 14-6.3 14-14s-6.3-14-14-14zM255 163.1c-5.9 5.9-13.7 9.2-22.1 9.3h-.2c-17.2 0-31.2-14-31.3-31.1 0-8.4 3.2-16.2 9-22.2 5.9-5.9 13.7-9.2 22.1-9.3h.2c17.2 0 31.2 14 31.3 31.1.1 8.3-3.1 16.2-9 22.2z"/></svg>