<svg xmlns="http://www.w3.org/2000/svg" viewBox="-197 224.8 163.3 113" width="48" height="33.21"><path d="M-41.5 293.4c-4.9-4.8-11.3-7.4-18.2-7.4-3.1 0-6 .6-8.8 1.6v-24.4c0-11-8.9-19.9-19.9-19.9-3.1 0-6.1.8-8.7 2.1-10.8-13.1-26.5-20.6-43.5-20.6-31.1 0-56.5 25.3-56.5 56.5 0 31.1 25.3 56.5 56.5 56.5 12.6 0 24.8-4.3 34.7-12 3.4 6.3 9.9 10.6 17.5 10.6 4.6 0 8.9-1.6 12.4-4.5 4.6 3.7 10.2 5.9 16.2 5.9 7 0 13.6-2.7 18.5-7.7 4.8-4.9 7.5-11.5 7.4-18.4.1-6.9-2.6-13.4-7.6-18.3zm-6.6 2.4l-27.4 27.9c-5.7-7.7-5.2-18.7 1.7-25.7 3.8-3.8 8.8-5.9 14.2-5.9 4.2 0 8.2 1.3 11.5 3.7zm-26.4-32.6V286h-27.7v-22.7c0-7.6 6.2-13.9 13.9-13.9 7.6 0 13.8 6.2 13.8 13.8zm-63 68.4v-9.2c0-1.7-1.4-3-3-3-1.7 0-3 1.4-3 3v9.2c-25.5-1.5-45.9-22-47.3-47.5h8.9c1.7 0 3-1.4 3-3s-1.4-3-3-3h-8.9c1.6-25.3 21.9-45.5 47.2-47v8.7c0 1.7 1.4 3 3 3 1.7 0 3-1.4 3-3V231c13.9.8 26.5 7.2 35.5 17.8-3.8 3.6-6.2 8.7-6.2 14.4v53.3c0 1.1.1 2.2.3 3.2-8.2 7.1-18.6 11.3-29.5 11.9zm35.3-15.1V292H-76c-.7.6-1.4 1.1-2.1 1.7-9.2 9.3-9.7 23.8-2 33.9-2.4 1.8-5.2 2.8-8.2 2.8-7.6 0-13.9-6.2-13.9-13.9zm56.7 9.3c-6.7 6.8-18 7.5-25.7 2.1l27.4-27.9c2.5 3.4 3.9 7.4 4 11.7.1 5.3-1.9 10.4-5.7 14.1zm-92-71.7v28c0 .7-.3 1.4-.7 2l-14.4 16.6c-.6.7-1.4 1-2.3 1-.7 0-1.4-.2-2-.7-1.3-1.1-1.4-3-.3-4.3l13.6-15.8V254c0-1.7 1.4-3 3-3 1.8.1 3.1 1.4 3.1 3.1z"/></svg>