<svg version="1.1" id="axLayer_1" xmlns="http://www.w3.org/2000/svg" x="0" y="0" viewBox="0 0 25 25" xml:space="preserve" width="25" height="25"><style>.axst0{fill:#010101}</style><path class="axst0" d="M19.77 15.49c-.51-.53-1.13-.82-1.78-.82-.65 0-1.27.28-1.8.81l-1.67 1.66c-.14-.07-.27-.14-.41-.21-.19-.09-.37-.18-.52-.28-1.56-.99-2.98-2.29-4.34-3.96-.66-.83-1.1-1.54-1.42-2.25.43-.4.83-.81 1.22-1.2.15-.15.3-.3.44-.45 1.11-1.11 1.11-2.54 0-3.65L8.04 3.7c-.16-.16-.33-.33-.49-.5-.31-.32-.65-.66-.99-.98-.51-.5-1.12-.77-1.77-.77s-1.26.27-1.79.77l-.01.01-1.8 1.81C.52 4.72.13 5.54.05 6.5c-.13 1.54.33 2.98.68 3.92.85 2.31 2.13 4.44 4.04 6.73 2.31 2.76 5.09 4.94 8.27 6.48 1.21.58 2.83 1.26 4.64 1.37h.33c1.22 0 2.24-.44 3.05-1.31.01-.01.02-.02.02-.03.27-.33.59-.63.92-.96.23-.22.46-.44.69-.68.52-.54.8-1.18.8-1.83 0-.65-.28-1.28-.81-1.81l-2.91-2.89zm1.89 5.56c-.01 0-.01 0 0 0-.21.22-.42.42-.64.64-.34.33-.69.67-1.02 1.06-.53.57-1.16.84-1.98.84-.08 0-.16 0-.24-.01-1.57-.1-3.02-.71-4.12-1.23-2.99-1.45-5.61-3.5-7.79-6.1-1.8-2.17-3-4.17-3.8-6.33-.5-1.32-.68-2.34-.6-3.31.06-.61.29-1.13.73-1.56L4 3.25c.26-.25.53-.38.8-.38.33 0 .6.2.77.37l.02.02c.32.3.63.61.95.94.16.17.33.34.5.51l1.44 1.44c.56.56.56 1.08 0 1.64-.15.15-.3.31-.45.45-.45.46-.87.88-1.33 1.29-.01.01-.02.02-.02.03-.45.45-.37.9-.27 1.2.01.02.01.03.02.05.37.91.9 1.76 1.7 2.78l.01.01c1.46 1.79 2.99 3.19 4.69 4.26.22.14.44.25.65.35.19.09.37.18.52.28.02.01.04.03.06.04.18.09.35.13.52.13.44 0 .71-.27.8-.36l1.8-1.8c.18-.18.46-.4.8-.4.33 0 .6.21.76.39l.01.01 2.91 2.91c.54.52.54 1.08 0 1.64zM13.52 5.95c1.38.23 2.64.89 3.64 1.89s1.65 2.26 1.89 3.64c.06.35.36.59.7.59.04 0 .08-.01.12-.01.39-.06.65-.43.59-.82-.28-1.67-1.08-3.2-2.29-4.41s-2.73-2-4.41-2.29a.72.72 0 00-.82.58c-.06.39.19.76.58.83zM24.98 11.03c-.47-2.75-1.77-5.26-3.76-7.26S16.72.48 13.96.01c-.39-.07-.75.2-.82.58-.06.39.2.75.59.82 2.46.42 4.7 1.58 6.49 3.36 1.78 1.78 2.94 4.03 3.36 6.49.06.35.36.59.7.59.04 0 .08-.01.12-.01a.69.69 0 00.58-.81z"/></svg>