<svg xmlns="http://www.w3.org/2000/svg" viewBox="-23 25 512 512" width="48" height="48"><path d="M260.6 412.9l50 113.5c1.8 4 5.7 6.6 10.1 6.6h.1c4.4 0 8.3-2.6 10-6.6l26.8-62.3 1.5-3.4 3.5 1.2 64.2 21.8c1.1.4 2.3.6 3.5.6 3.1 0 6-1.3 8.1-3.6 2.9-3.2 3.7-7.9 2-11.9l-56.3-127.7-1-2.2 1.4-1.9c12.5-16.3 22.3-34.4 29-53.8 6.9-20 10.5-41 10.5-62.3 0-105.9-85.7-192-191-192S42 115.1 42 221c0 21.3 3.5 42.3 10.5 62.3 6.7 19.3 16.5 37.4 29 53.8l1.4 1.9-1 2.2-56.3 127.6c-1.8 4-1 8.7 2 11.9 2.1 2.3 5 3.6 8.1 3.6 1.2 0 2.4-.2 3.5-.6l64.2-21.8 3.5-1.2 1.5 3.4 26.8 62.3c1.7 4 5.7 6.6 10.1 6.6 4.4 0 8.3-2.6 10.1-6.6l50-113.5 1.2-2.7 2.9.4c7.8 1 15.6 1.4 23.4 1.4 7.8 0 15.7-.5 23.4-1.4l2.9-.4 1.4 2.7zm145.9 33.6l3.7 8.3-8.6-2.9-45-15.3c-1.1-.4-2.3-.6-3.5-.6-4.4 0-8.4 2.6-10.1 6.6L324.2 486l-3.6 8.4-3.7-8.4-33.6-76-1.8-4.2 4.4-1.3c28.5-8.2 55.1-23.3 77-43.7l4.1-3.8 2.3 5.1 37.2 84.4zM182.7 410l-33.5 76.1-3.7 8.4-3.6-8.4-18.7-43.4c-1.7-4-5.7-6.6-10.1-6.6-1.2 0-2.4.2-3.5.6l-45 15.3-8.6 2.9 3.7-8.3 37.2-84.3L99 357l4.1 3.8c21.9 20.4 48.5 35.5 77 43.7l4.4 1.3-1.8 4.2zm50.3-20c-93.2 0-169-75.8-169-169 0-93.7 75.8-170 169-170s169 76.3 169 170c0 93.2-75.8 169-169 169z"/><path d="M329.1 189.8c-1.3-4-4.7-6.9-8.9-7.5l-51.3-7.5-2.1-.3-.9-1.9-23-46.5c-1.9-3.8-5.6-6.1-9.9-6.1-4.2 0-8 2.3-9.9 6.1l-23 46.5-.9 1.9-2.1.3-51.3 7.5c-4.2.6-7.6 3.5-8.9 7.5-1.3 4-.2 8.3 2.8 11.3l37.2 36.2 1.5 1.5-.4 2.1-8.8 51.1c-.7 4.2 1 8.3 4.4 10.8 1.9 1.4 4.1 2.1 6.5 2.1 1.8 0 3.5-.4 5.1-1.3l45.9-24.1 1.9-1 1.9 1 45.9 24.1c1.6.8 3.3 1.3 5.1 1.3 2.3 0 4.6-.7 6.5-2.1 3.4-2.5 5.1-6.6 4.4-10.8l-8.8-51.1-.4-2.1 1.5-1.5 37.2-36.2c3-3 4.1-7.3 2.8-11.3zm-39.9 16.7l-21 20.5c-2.6 2.5-3.8 6.2-3.2 9.7l5 29 1.4 8-7.2-3.8-26-13.7c-1.6-.8-3.3-1.3-5.1-1.3-1.8 0-3.5.4-5.1 1.3l-26 13.7-7.2 3.8 1.4-8 5-29c.6-3.6-.6-7.2-3.2-9.7l-21-20.5-5.8-5.7 8-1.2 29.1-4.2c3.6-.5 6.7-2.8 8.3-6l13-26.3 3.6-7.3 3.6 7.3 13 26.3c1.6 3.2 4.7 5.5 8.3 6l29.1 4.2 8 1.2-6 5.7z"/></svg>