<svg xmlns="http://www.w3.org/2000/svg" viewBox="-23 56 512 450" width="48" height="42.19"><path d="M457.1 394.7c49.5-69.4 41.9-164.5-25.7-226.5-30.9-28.3-70.2-45.9-112.8-50.8-.3-.3-.5-.6-.8-1C280.8 78 227.7 56 172 56 66 56-23 134.9-23 236c0 35.4 11 69.4 31.9 98.7l-29.2 91.7c-1.8 5.8 0 12.1 4.6 16 4.6 3.9 11.1 4.7 16.5 1.9l88.8-45.2c18.2 7.9 37.6 13 57.6 15.4C185.9 455.2 239.3 476 294 476c28.4 0 56.7-5.8 82.4-16.8l88.8 45.2c2.2 1.1 4.5 1.6 6.8 1.6 10.1 0 17.4-9.9 14.3-19.6l-29.2-91.7zM95.7 369c-4.2-2-9.1-1.9-13.2.2l-63.3 32.2 20.7-64.9c1.5-4.7.6-9.9-2.5-13.8C17.5 297.3 7 267.3 7 236 7 153.3 81 86 172 86c36.6 0 71.9 11.1 100.5 31.1C176.2 126.8 99 202 99 296c0 29.2 7.5 57.4 21.6 82.6-8.5-2.6-16.9-5.8-24.9-9.6zm287.8 60.2c-4.1-2.1-9-2.2-13.2-.2-23.4 11.1-49.8 17-76.3 17-91 0-165-67.3-165-150s74-150 165-150 165 67.3 165 150c0 31.3-10.5 61.3-30.4 86.7-3.1 3.9-4 9.1-2.5 13.8l20.7 64.9-63.3-32.2z"/><circle cx="233" cy="296" r="15"/><circle cx="293" cy="296" r="15"/><circle cx="353" cy="296" r="15"/></svg>