<svg version="1.1" id="aqLayer_1" xmlns="http://www.w3.org/2000/svg" x="0" y="0" viewBox="0 0 25 25" xml:space="preserve" width="25" height="25"><style>.aqst0{fill:#010101}</style><path class="aqst0" d="M12.5.16C5.66.16.08 5.74.08 12.58S5.66 25 12.5 25c3.3 0 6.42-1.3 8.77-3.65 2.35-2.35 3.65-5.47 3.65-8.77C24.92 5.74 19.34.16 12.5.16zm8.49 18.67c-.06.21-.15.48-.06.76a10.93 10.93 0 01-8.43 3.96c-6.05 0-10.97-4.92-10.97-10.97 0-1.78.43-3.46 1.18-4.95 1.26 0 1.74.23 1.82.33 0 .03-.01.14-.16.38-.93 1.5-1.2 2.45-.91 3.18.29.74 1.03.94 1.58 1.09.21.06.42.11.57.19.56.27 2.02.95 2.32 1.24v.84c0 .79.73 1.2 1.25 1.5.19.11.49.28.58.39.01 3.93.74 4.8 1.28 5.11.18.1.38.16.58.16.84 0 1.51-.93 1.49-1.67v-.88c.06-.18.46-.61.74-.9.84-.87 1.99-2.05 1.99-3.7 0-.63-.32-.96-.59-1.14-.27-.17-.58-.24-.88-.3-.83-.18-1.12-.34-1.56-1.03-.25-.4-.64-1.01-1.42-1.01-.67 0-1.04.27-1.35.49-.31.23-.58.42-1.4.42-.78 0-1.24-.44-1.39-.82-.05-.13-.15-.45.08-.68.04-.04.06-.05.06-.05.08-.01.32.11.47.19.48.24 1.39.69 2.21-.14.31-.31.49-.55.6-.7.57 0 1.18.01 1.68-.15.7-.23 1.1-.77 1.1-1.49V8.4c.67-.49.49-1.2.56-1.38.12-.03.28-.02.35-.02l1.31-.55c.32-.03 1.02-.18 2.37-1.04a1.187 1.187 0 00-.11-2.07c-.22-.11-.35-.17-.54-.17h-2.8c-1.88 0-2.91 0-5.77.95-1.84.62-3.23.81-4.22.86 2-2.07 4.8-3.36 7.9-3.36 5.43 0 9.96 3.97 10.82 9.16-.09.22-.12.43-.13.6-.24-.06-.52-.2-.81-.35-.5-.25-1.07-.53-1.7-.53-.51 0-1.03 0-1.49.15-.68.23-1.07.77-1.07 1.49 0 .19 0 .19-.2.32-.3.19-.92.59-.7 1.66.16.76.46 1.27.94 1.56.69.42 1.45.21 2.01.05.19-.05.41-.11.51-.11.04 0 .05 0 .09.06.1.16.18.44.23.65.32 1.41.1 2.12-.01 2.5zM5.76 11.3c-.11-.03-.22-.07-.33-.09-.2-.06-.54-.15-.61-.23-.01-.04-.08-.46.8-1.88.54-.87.39-1.5.18-1.87-.21-.36-.57-.63-1.09-.8 1.07-.06 2.6-.27 4.57-.92 2.64-.88 3.53-.88 5.31-.88h1.91c-.89.46-1.05.36-1.14.37l-1.31.55c-.91.07-1.48.69-1.48 1.64v.08c-.27.2-.54.51-.54 1.21 0 .04 0 .06-.01.07-.18.13-1.04.12-1.29.11-.52 0-.84.02-1.16.53-.07.12-.18.29-.5.61-.04.04-.06.05-.06.05-.08.01-.32-.12-.47-.19-.49-.24-1.39-.69-2.22.14-.4.4-.59.94-.56 1.5zm5.87 9.1s-.01 0 0 0c-.17-.37-.4-1.34-.4-3.68 0-.84-.76-1.28-1.32-1.59-.16-.09-.42-.24-.52-.33-.01-.78.01-.87-.02-1.06.81-.11 1.23-.42 1.55-.65.22-.16.3-.21.45-.22.06.06.16.22.23.33.67 1.05 1.29 1.41 2.47 1.67.1.02.23.05.32.08-.03 1.03-.85 1.88-1.58 2.63-1.23 1.28-1.21 1.41-1.18 2.82zM22.41 16c-.12-.5-.43-1.84-1.74-1.84-.3 0-.61.08-.9.17-.3.08-.72.2-.86.11-.08-.05-.19-.24-.27-.61-.01-.04-.01-.07-.01-.09.02-.02.05-.04.08-.05.3-.19.87-.56.87-1.54 0-.04 0-.07.01-.08.15-.1.76-.1 1.1-.1.29 0 .66.19 1.05.38.5.25 1.07.53 1.7.53h.04c-.04 1.43-.35 2.79-.89 4.04-.05-.29-.1-.59-.18-.92z"/></svg>