<svg xmlns="http://www.w3.org/2000/svg" viewBox="67.2 135.6 331.7 290.9" width="48" height="42.1"><path d="M370.7 163.8c-37.6-37.6-98.6-37.6-136.2 0l-1.4 1.4-1.4-1.4c-37.6-37.6-98.6-37.6-136.2.1-37.6 37.6-37.6 98.5 0 136.1l20.5 20.5c-7.1 11.8-3.2 27.1 8.6 34.2 2.9 1.7 6 2.8 9.3 3.3-.4 1.7-.6 3.5-.6 5.2 0 13.8 11.2 25 25 25 2.4 0 4.8-.4 7.2-1 2.3 11.8 12.6 20.3 24.5 20.2 2.5 0 5-.4 7.4-1.1 2.7 13.5 15.9 22.3 29.4 19.6 4.8-1 9.3-3.3 12.8-6.8l13.7-13.7c.3-.3.6-.7.9-1 13 4.6 27.3-2.3 31.8-15.3.1-.2.1-.4.2-.6 11.3 7.9 26.9 5.2 34.8-6.1 4.2-6 5.6-13.6 3.7-20.7 13.6-2.3 22.7-15.2 20.4-28.8-.3-2-.9-3.9-1.7-5.7l27.2-27.2c37.6-37.6 37.6-98.6.1-136.2zM129.5 325.5l.6-.6 35-35c4.3-4.3 11.3-4.3 15.6 0 4.3 4.3 4.3 11.3 0 15.6l-10.4 10.4-25.3 25.3c-4.3 4.3-11.3 4.2-15.6-.1-4.1-4.4-4.1-11.3.1-15.6zm21 45.5c-4.3-4.3-4.3-11.3 0-15.6l4.5-4.5 25.3-25.3c4.3-4.3 11.3-4.3 15.6 0 4.3 4.3 4.3 11.3 0 15.6L166 371c-4.3 4.2-11.2 4.2-15.5 0zm31.7 19.2c-4.3-4.3-4.3-11.3 0-15.6l28.9-28.9c4.3-4.3 11.3-4.3 15.6 0 4.3 4.3 4.3 11.3 0 15.6l-29 28.9c-4.3 4.3-11.2 4.3-15.5 0zm47.4 19c-4.3 4.3-11.3 4.3-15.6 0-4.3-4.3-4.3-11.3 0-15.6l13.7-13.7c4.3-4.3 11.2-4.4 15.6-.1 4.3 4.3 4.4 11.2.1 15.6l-.1.1-13.7 13.7zm98.7-64.3c-4.3 4.3-11.3 4.3-15.6 0L280 312.1c-2.7-2.7-7.2-2.7-9.9 0s-2.7 7.2 0 9.9l38.2 38.2c4.2 4.4 4 11.4-.4 15.6-4.3 4-10.9 4-15.2 0l-30.4-30.4c-2.7-2.7-7.2-2.7-9.9 0s-2.7 7.2 0 9.9l17.7 17.7c4.3 4.3 4.3 11.3 0 15.6-2.6 2.6-6.4 3.7-10 3 2-12.7-6-24.8-18.5-28 5.6-12.6-.1-27.3-12.7-32.9-5.2-2.3-11-2.8-16.4-1.3-1.6-9.5-8.4-17.2-17.7-19.9 5.2-9.7 3.4-21.7-4.4-29.5-9.8-9.7-25.6-9.7-35.4 0l-29.8 30-19.9-19.9c-32.2-32.2-32.2-84.3 0-116.4s84.3-32.2 116.4 0l1.4 1.4-49.7 49.7c-2.7 2.7-2.7 7.2 0 9.9 16.3 16.3 42.7 16.3 58.9 0l.6-.6 95.3 95.3c4.4 4.2 4.4 11.2.1 15.5zm6.5-28.8l-91.9-91.9 19.6-19.6c2.7-2.8 2.6-7.2-.2-9.9-2.7-2.6-7-2.6-9.7 0l-30.1 30.1c-8.9 8.9-22.7 10.7-33.6 4.3l55.4-55.4c32.4-31.9 84.5-31.6 116.4.8 31.6 32.1 31.6 83.6 0 115.6l-25.9 26z"/></svg>