<svg xmlns="http://www.w3.org/2000/svg" viewBox="-23 25 493 512" width="46.22" height="48"><path d="M460 420.2l-38.7-22.4v-79.6l38.7-22.4c9.6-5.5 12.8-17.8 7.3-27.3-5.5-9.6-17.8-12.8-27.3-7.3l-38.8 22.4-68.8-39.7v-79.5l38.8-22.4c9.6-5.5 12.8-17.8 7.3-27.3-5.5-9.6-17.8-12.8-27.3-7.3l-38.8 22.4L243.5 90V45c0-11-9-20-20-20s-20 9-20 20v44.8l-68.9 39.8-38.8-22.4c-9.6-5.5-21.8-2.2-27.3 7.3-5.5 9.6-2.2 21.8 7.3 27.3l38.8 22.4v79.5l-68.8 39.7L7 261.1c-9.6-5.5-21.8-2.3-27.3 7.3s-2.3 21.8 7.3 27.3l38.7 22.4v79.6L-13 420.2c-9.6 5.5-12.8 17.8-7.3 27.3 5.5 9.6 17.8 12.8 27.3 7.3l38.8-22.4 68.8 39.7V517c0 11 9 20 20 20s20-9 20-20v-44.8l68.9-39.8 68.9 39.8V517c0 11 9 20 20 20s20-9 20-20v-44.8l68.8-39.7 38.8 22.4c9.5 5.5 21.8 2.3 27.3-7.3 5.5-9.7 2.3-21.9-7.3-27.4zm-256.5-22.5l-68.9 39.8-68.9-39.8v-79.5l68.9-39.8 68.9 39.8v79.5zm-48.9-153.9v-79.5l68.9-39.8 68.9 39.8v79.5l-68.9 39.8-68.9-39.8zm226.7 153.9l-68.9 39.8-68.9-39.8v-79.5l68.9-39.8 68.9 39.8v79.5z"/></svg>