<?xml version="1.0" encoding="utf-8"?>
<!-- Generator: Adobe Illustrator 19.0.0, SVG Export Plug-In . SVG Version: 6.00 Build 0)  -->
<svg version="1.1" id="Layer_1" xmlns="http://www.w3.org/2000/svg" xmlns:xlink="http://www.w3.org/1999/xlink" x="0px" y="0px"
	 viewBox="0 0 560 560" style="enable-background:new 0 0 560 560;" xml:space="preserve">
<style type="text/css">
	.st0{fill:#263938;}
</style>
<path id="XMLID_10_" class="st0" d="M202.4,372.5h-123l-27.7,79.4H0l115.1-328.7h51.6l115.1,328.6h-51.6L202.4,372.5z M186.4,326
	l-45.6-130.5L95.2,326H186.4z"/>
<path id="XMLID_2_" class="st0" d="M390.4,454.7c-58.6-3.5-101.8-44.1-98.5-100.8c1.5-24.4,8.3-45.1,31.5-127.9
	c21.5-76.8,67.2-109.9,138-105.7c58.6,3.5,101.8,44.1,98.5,100.8c-1.5,24.4-8.3,45.1-31.5,127.9
	C506.8,425.9,461.1,458.9,390.4,454.7z M341,349.3c-2.2,37.1,24,55.5,58.3,57.5c32.3,1.9,65.8-14.5,78.8-60.8
	c26.3-94.4,31.8-109.6,32.5-120.4c2.2-37.1-24-55.5-58.3-57.5c-32.3-1.9-65.8,14.5-78.8,60.8C347.2,323.3,341.7,338.5,341,349.3z"/>
</svg>
