<?xml version="1.0" standalone="no"?>
<!DOCTYPE svg PUBLIC "-//W3C//DTD SVG 20010904//EN"
 "http://www.w3.org/TR/2001/REC-SVG-20010904/DTD/svg10.dtd">
<svg version="1.0" xmlns="http://www.w3.org/2000/svg"
 width="700.000000pt" height="700.000000pt" viewBox="0 0 700.000000 700.000000"
 preserveAspectRatio="xMidYMid meet">
<metadata>
Created by potrace 1.14, written by Peter Selinger 2001-2017
</metadata>
<g transform="translate(0.000000,700.000000) scale(0.100000,-0.100000)"
fill="#000000" stroke="none">
<path d="M5449 5496 c-2 -2 -35 -7 -74 -11 -152 -15 -344 -70 -489 -141 -324
-160 -567 -441 -733 -849 -34 -83 -90 -241 -99 -280 -2 -5 -41 -147 -89 -315
-203 -717 -254 -913 -289 -1095 -2 -12 -7 -48 -11 -80 -4 -33 -9 -69 -11 -80
-7 -33 -6 -237 1 -290 60 -482 414 -861 930 -994 142 -36 278 -49 480 -46 171
3 197 6 346 36 379 75 689 288 904 621 141 216 228 435 354 888 22 80 65 235
96 345 154 551 201 741 223 915 13 100 6 360 -12 435 -23 98 -21 93 -50 168
-141 374 -494 657 -921 741 -44 9 -93 18 -110 22 -34 7 -440 16 -446 10z m391
-625 c117 -28 198 -61 280 -116 170 -113 254 -276 264 -511 4 -85 -18 -190
-101 -478 -24 -88 -46 -167 -48 -175 -2 -9 -29 -104 -60 -211 -30 -107 -76
-269 -101 -360 -122 -433 -136 -475 -195 -592 -159 -315 -449 -503 -791 -512
-507 -14 -839 259 -824 679 5 128 7 135 172 719 58 204 116 409 129 456 141
510 164 574 273 739 57 86 187 210 277 263 85 50 237 106 313 115 26 3 49 7
51 9 14 13 285 -6 361 -25z"/>
<path d="M1431 5438 c-4 -13 -63 -180 -130 -373 -68 -192 -133 -379 -146 -415
-36 -101 -84 -239 -205 -585 -61 -176 -114 -327 -117 -335 -3 -8 -7 -19 -9
-25 -1 -5 -28 -82 -59 -170 -63 -178 -192 -546 -205 -585 -4 -14 -35 -101 -68
-195 -33 -93 -94 -269 -136 -390 -42 -121 -83 -236 -91 -255 -10 -26 -224
-639 -260 -747 -3 -10 65 -13 318 -13 l323 0 169 485 c93 267 172 491 176 497
6 9 200 12 773 12 l765 1 20 -55 c11 -30 52 -147 91 -260 40 -113 109 -311
155 -440 l82 -235 322 -2 c176 0 321 0 321 2 0 3 -129 376 -165 475 -38 108
-166 473 -169 485 -4 12 -15 43 -26 70 -5 11 -20 54 -34 95 -13 41 -38 113
-55 160 -78 221 -164 469 -176 505 -7 22 -39 112 -70 200 -31 88 -75 212 -96
275 -22 63 -53 151 -69 195 -16 44 -65 186 -110 315 -45 129 -85 244 -90 255
-4 11 -22 63 -40 115 -18 52 -36 104 -40 115 -5 11 -73 206 -152 432 l-143
413 -323 0 -322 0 -9 -22z m352 -945 c8 -27 43 -127 77 -223 34 -96 65 -186
70 -200 4 -14 34 -97 65 -185 31 -88 62 -178 70 -200 7 -22 45 -132 85 -245
39 -113 86 -248 105 -300 18 -52 42 -122 54 -155 11 -32 21 -59 21 -60 0 0
-256 0 -569 0 l-569 0 15 45 c20 65 5 21 235 675 38 110 89 256 113 325 24 69
64 184 89 255 26 72 61 172 78 223 17 50 35 92 38 92 4 0 14 -21 23 -47z"/>
</g>
</svg>
